<mxfile host="app.diagrams.net" agent="Mozilla/5.0 (Macintosh; Intel Mac OS X 10_15_7) AppleWebKit/537.36 (KHTML, like Gecko) Chrome/129.0.0.0 Safari/537.36 Edg/129.0.0.0" version="26.0.4">
  <diagram name="Page-1" id="tzCXrWUu543_5iKeOueY">
    <mxGraphModel dx="2628" dy="3074" grid="1" gridSize="10" guides="1" tooltips="1" connect="1" arrows="1" fold="1" page="1" pageScale="1" pageWidth="1654" pageHeight="1169" math="0" shadow="0">
      <root>
        <mxCell id="0" />
        <mxCell id="1" parent="0" />
        <UserObject label="" plantUmlData="{&#xa;  &quot;data&quot;: &quot;@startuml School Management System - Class Diagram\n\n&#39; Layout settings\nskinparam Linetype ortho\nskinparam classAttributeIconSize 0\nhide circle\n\n&#39; Style settings\nskinparam class {\n    color black\n    BackgroundColor white\n    BorderColor black\n    ArrowColor black\n}\n\nabstract class User {\n    - id\n    - schoolId\n    - username\n    - password\n    - firstName\n    - lastName\n    - email\n    - phone\n    - address\n    - lastLogin\n    - isActive\n    - fingerprint\n    \n    + login()\n    + logout()\n    + verifyFingerprint()\n    + updateProfile()\n    + changePassword()\n}\n\nclass Student {\n    - studentId\n    - grade\n    - section\n    - enrollmentDate\n    - parentName\n    - parentContact\n    - gpa\n    \n    + submitAssessment()\n    + viewAssessments()\n    + viewSubmissionMarks()\n    + viewExams()\n    + viewExamResults()\n    + applyForRecorrection()\n    + calculateGPA()\n}\n\nclass Teacher {\n    - teacherId\n    - department\n    - subjects\n    - joiningDate\n    - qualification\n    \n    + manageStudent()\n    + generateReport()\n    + manageAssessment()\n    + manageExam()\n    + gradeSubmission()\n}\n\nclass SectionHead {\n    - sectionId\n    - department\n    - assignedTeachers\n    \n    + manageTeacher()\n    + manageTimeTable()\n    + approveLeaveRequest()\n    + generateSectionReport()\n}\n\nclass Principal {\n    - appointmentDate\n    \n    + broadcastAnnouncement()\n    + reviewReports()\n    + approveEvents()\n    + manageStaff()\n    + reviewPerformance()\n}\n\nclass Admin {\n    - adminId\n    - accessLevel\n    \n    + manageUsers()\n    + configureSystem()\n    + backupData()\n    + generateSystemReports()\n    + managePermissions()\n}\n\nclass Assessment {\n    - id\n    - title\n    - description\n    - dueDate\n    - totalMarks\n    - subject\n    - assignedTo\n    \n    + createAssessment()\n    + updateAssessment()\n    + deleteAssessment()\n    + assignToStudents()\n}\n\nclass Exam {\n    - id\n    - name\n    - subject\n    - date\n    - duration\n    - totalMarks\n    \n    + createExam()\n    + updateExam()\n    + deleteExam()\n    + assignToStudents()\n    + generateResults()\n}\n\nclass ExamResult {\n    - id\n    - examId\n    - studentId\n    - marks\n    - grade\n    - remarks\n    - date\n    \n    + calculateGrade()\n    + generateReport()\n    + updateResult()\n}\n\nclass TimeTable {\n    - id\n    - grade\n    - section\n    - schedule\n    - validFrom\n    - validTo\n    \n    + createSchedule()\n    + updateSchedule()\n    + deleteSchedule()\n    + validateSchedule()\n}\n\nclass Session {\n    - id\n    - subject\n    - teacherId\n    - startTime\n    - endTime\n    - day\n    \n    + createSession()\n    + updateSession()\n    + deleteSession()\n    + validateTime()\n}\n\nclass Report {\n    - id\n    - type\n    - date\n    - generatedBy\n    - content\n    \n    + generateReport()\n    + exportReport()\n    + shareReport()\n    + archiveReport()\n}\n\nclass StudentRecord {\n    - studentId\n    - currentGrade\n    - academicYear\n    - subjects\n    - attendance\n    - achievements\n    \n    + updateRecord()\n    + calculateAttendance()\n    + addAchievement()\n    + generateTranscript()\n}\n\nclass Log {\n    - id\n    - type\n    - userId\n    - targetId\n    - action\n    - timestamp\n    - details\n    - status\n    - ipAddress\n    \n    + createLog()\n    + updateLog()\n    + getLogHistory()\n    + generateReport()\n    + calculateStatistics()\n    + cleanOldLogs()\n}\n\n&#39; Inheritance relationships\nUser &lt;|-- Student\nUser &lt;|-- Teacher\nUser &lt;|-- SectionHead\nUser &lt;|-- Principal\nUser &lt;|-- Admin\n\n&#39; Core academic relationships\nStudent \&quot;*\&quot; -- \&quot;*\&quot; Assessment : submits\nStudent \&quot;*\&quot; -- \&quot;*\&quot; Exam : takes\nStudent \&quot;1\&quot; -- \&quot;*\&quot; ExamResult : receives\nStudent \&quot;1\&quot; -- \&quot;1\&quot; StudentRecord : owns\nStudent \&quot;*\&quot; -- \&quot;1\&quot; TimeTable : follows\nStudent \&quot;*\&quot; -- \&quot;1\&quot; SectionHead : reports to\n\n&#39; Teaching relationships\nTeacher \&quot;*\&quot; -- \&quot;*\&quot; TimeTable : schedules\nTeacher \&quot;1\&quot; -- \&quot;*\&quot; Assessment : creates\nTeacher \&quot;1\&quot; -- \&quot;*\&quot; Exam : conducts\nTeacher \&quot;*\&quot; -- \&quot;1\&quot; SectionHead : reports to\nTeacher \&quot;1\&quot; -- \&quot;*\&quot; Session : teaches\nTeacher \&quot;1..*\&quot; -- \&quot;*\&quot; Student : teaches\n\n&#39; Management relationships\nSectionHead \&quot;1\&quot; -- \&quot;*\&quot; Teacher : supervises\nSectionHead \&quot;1\&quot; -- \&quot;*\&quot; TimeTable : manages\nSectionHead \&quot;1\&quot; -- \&quot;*\&quot; Report : reviews\nSectionHead \&quot;1\&quot; -- \&quot;*\&quot; Student : manages\n\n&#39; Administrative relationships\nPrincipal \&quot;1\&quot; -- \&quot;*\&quot; Report : oversees\nPrincipal \&quot;1\&quot; -- \&quot;*\&quot; SectionHead : manages\nPrincipal \&quot;1\&quot; -- \&quot;*\&quot; Teacher : evaluates\nPrincipal \&quot;1\&quot; -- \&quot;*\&quot; Student : monitors\nPrincipal \&quot;1\&quot; -- \&quot;*\&quot; TimeTable : approves\n\nAdmin \&quot;1\&quot; -- \&quot;*\&quot; TimeTable : configures\nAdmin \&quot;1\&quot; -- \&quot;*\&quot; Session : maintains\n\n&#39; Schedule relationships\nTimeTable \&quot;1\&quot; -- \&quot;*\&quot; Session : contains\nSession \&quot;*\&quot; -- \&quot;1\&quot; Teacher : assigned to\nSession \&quot;1\&quot; -- \&quot;*\&quot; Student : attended by\n\n&#39; Academic content relationships\nAssessment \&quot;1\&quot; -- \&quot;*\&quot; Report : generates\nAssessment \&quot;*\&quot; -- \&quot;1\&quot; TimeTable : scheduled in\nExam \&quot;1\&quot; -- \&quot;*\&quot; ExamResult : produces\nExam \&quot;*\&quot; -- \&quot;1\&quot; TimeTable : scheduled in\nExamResult \&quot;*\&quot; -- \&quot;1\&quot; Report : included in\n\n&#39; Record relationships\nStudentRecord \&quot;1\&quot; -- \&quot;*\&quot; Assessment : tracks\nStudentRecord \&quot;1\&quot; -- \&quot;*\&quot; ExamResult : includes\nStudentRecord \&quot;1\&quot; -- \&quot;*\&quot; Report : generates\nStudentRecord \&quot;1\&quot; -- \&quot;*\&quot; Session : records\n\n&#39; Logging relationships\nLog \&quot;*\&quot; -- \&quot;1\&quot; User : tracks activity\nLog \&quot;*\&quot; -- \&quot;1\&quot; Session : records attendance\nLog \&quot;*\&quot; -- \&quot;1\&quot; Student : tracks performance\nTeacher \&quot;1\&quot; -- \&quot;*\&quot; Log : manages attendance\nAdmin \&quot;1\&quot; -- \&quot;*\&quot; Log : monitors\nReport \&quot;1\&quot; -- \&quot;*\&quot; Log : includes\nStudentRecord \&quot;1\&quot; -- \&quot;*\&quot; Log : contains history\n\n@enduml\n&quot;,&#xa;  &quot;format&quot;: &quot;svg&quot;&#xa;}" id="MXfpgNVGjmoxAFP5kCpQ-1">
          <mxCell style="shape=image;noLabel=1;verticalAlign=top;aspect=fixed;imageAspect=0;image=data:image/svg+xml,PD94bWwgdmVyc2lvbj0iMS4wIiBlbmNvZGluZz0idXMtYXNjaWkiIHN0YW5kYWxvbmU9Im5vIj8+PHN2ZyB4bWxucz0iaHR0cDovL3d3dy53My5vcmcvMjAwMC9zdmciIHhtbG5zOnhsaW5rPSJodHRwOi8vd3d3LnczLm9yZy8xOTk5L3hsaW5rIiBjb250ZW50U3R5bGVUeXBlPSJ0ZXh0L2NzcyIgaGVpZ2h0PSIyNjQzcHgiIHByZXNlcnZlQXNwZWN0UmF0aW89Im5vbmUiIHN0eWxlPSJ3aWR0aDoxMzE0cHg7aGVpZ2h0OjI2NDNweDtiYWNrZ3JvdW5kOiNGRkZGRkY7IiB2ZXJzaW9uPSIxLjEiIHZpZXdCb3g9IjAgMCAxMzE0IDI2NDMiIHdpZHRoPSIxMzE0cHgiIHpvb21BbmRQYW49Im1hZ25pZnkiPjxkZWZzLz48Zz48IS0tY2xhc3MgVXNlci0tPjxnIGlkPSJlbGVtX1VzZXIiPjxyZWN0IGNvZGVMaW5lPSIxNCIgZmlsbD0iI0ZGRkZGRiIgaGVpZ2h0PSIyOTUuNzE4OCIgaWQ9IlVzZXIiIHJ4PSIyLjUiIHJ5PSIyLjUiIHN0eWxlPSJzdHJva2U6IzAwMDAwMDtzdHJva2Utd2lkdGg6MC41OyIgd2lkdGg9IjE1NCIgeD0iOTMzLjI1IiB5PSI3Ii8+PHRleHQgZmlsbD0iIzAwMDAwMCIgZm9udC1mYW1pbHk9InNhbnMtc2VyaWYiIGZvbnQtc2l6ZT0iMTQiIGZvbnQtc3R5bGU9Iml0YWxpYyIgbGVuZ3RoQWRqdXN0PSJzcGFjaW5nIiB0ZXh0TGVuZ3RoPSIyOCIgeD0iOTk2LjI1IiB5PSIyNS4yMzQ0Ij5Vc2VyPC90ZXh0PjxsaW5lIHN0eWxlPSJzdHJva2U6IzAwMDAwMDtzdHJva2Utd2lkdGg6MC41OyIgeDE9IjkzNC4yNSIgeDI9IjEwODYuMjUiIHkxPSIzMS45ODQ0IiB5Mj0iMzEuOTg0NCIvPjx0ZXh0IGZpbGw9IiMwMDAwMDAiIGZvbnQtZmFtaWx5PSJzYW5zLXNlcmlmIiBmb250LXNpemU9IjE0IiBsZW5ndGhBZGp1c3Q9InNwYWNpbmciIHRleHRMZW5ndGg9IjIxIiB4PSI5MzkuMjUiIHk9IjQ5LjIxODgiPi1pZDwvdGV4dD48dGV4dCBmaWxsPSIjMDAwMDAwIiBmb250LWZhbWlseT0ic2Fucy1zZXJpZiIgZm9udC1zaXplPSIxNCIgbGVuZ3RoQWRqdXN0PSJzcGFjaW5nIiB0ZXh0TGVuZ3RoPSI2MyIgeD0iOTM5LjI1IiB5PSI2NC4yMDMxIj4tc2Nob29sSWQ8L3RleHQ+PHRleHQgZmlsbD0iIzAwMDAwMCIgZm9udC1mYW1pbHk9InNhbnMtc2VyaWYiIGZvbnQtc2l6ZT0iMTQiIGxlbmd0aEFkanVzdD0ic3BhY2luZyIgdGV4dExlbmd0aD0iNjQiIHg9IjkzOS4yNSIgeT0iNzkuMTg3NSI+LXVzZXJuYW1lPC90ZXh0Pjx0ZXh0IGZpbGw9IiMwMDAwMDAiIGZvbnQtZmFtaWx5PSJzYW5zLXNlcmlmIiBmb250LXNpemU9IjE0IiBsZW5ndGhBZGp1c3Q9InNwYWNpbmciIHRleHRMZW5ndGg9IjY0IiB4PSI5MzkuMjUiIHk9Ijk0LjE3MTkiPi1wYXNzd29yZDwvdGV4dD48dGV4dCBmaWxsPSIjMDAwMDAwIiBmb250LWZhbWlseT0ic2Fucy1zZXJpZiIgZm9udC1zaXplPSIxNCIgbGVuZ3RoQWRqdXN0PSJzcGFjaW5nIiB0ZXh0TGVuZ3RoPSI3MSIgeD0iOTM5LjI1IiB5PSIxMDkuMTU2MyI+LWZpcnN0TmFtZTwvdGV4dD48dGV4dCBmaWxsPSIjMDAwMDAwIiBmb250LWZhbWlseT0ic2Fucy1zZXJpZiIgZm9udC1zaXplPSIxNCIgbGVuZ3RoQWRqdXN0PSJzcGFjaW5nIiB0ZXh0TGVuZ3RoPSI2NCIgeD0iOTM5LjI1IiB5PSIxMjQuMTQwNiI+LWxhc3ROYW1lPC90ZXh0Pjx0ZXh0IGZpbGw9IiMwMDAwMDAiIGZvbnQtZmFtaWx5PSJzYW5zLXNlcmlmIiBmb250LXNpemU9IjE0IiBsZW5ndGhBZGp1c3Q9InNwYWNpbmciIHRleHRMZW5ndGg9IjQzIiB4PSI5MzkuMjUiIHk9IjEzOS4xMjUiPi1lbWFpbDwvdGV4dD48dGV4dCBmaWxsPSIjMDAwMDAwIiBmb250LWZhbWlseT0ic2Fucy1zZXJpZiIgZm9udC1zaXplPSIxNCIgbGVuZ3RoQWRqdXN0PSJzcGFjaW5nIiB0ZXh0TGVuZ3RoPSI0MiIgeD0iOTM5LjI1IiB5PSIxNTQuMTA5NCI+LXBob25lPC90ZXh0Pjx0ZXh0IGZpbGw9IiMwMDAwMDAiIGZvbnQtZmFtaWx5PSJzYW5zLXNlcmlmIiBmb250LXNpemU9IjE0IiBsZW5ndGhBZGp1c3Q9InNwYWNpbmciIHRleHRMZW5ndGg9IjU2IiB4PSI5MzkuMjUiIHk9IjE2OS4wOTM4Ij4tYWRkcmVzczwvdGV4dD48dGV4dCBmaWxsPSIjMDAwMDAwIiBmb250LWZhbWlseT0ic2Fucy1zZXJpZiIgZm9udC1zaXplPSIxNCIgbGVuZ3RoQWRqdXN0PSJzcGFjaW5nIiB0ZXh0TGVuZ3RoPSI3MCIgeD0iOTM5LjI1IiB5PSIxODQuMDc4MSI+LWxhc3RMb2dpbjwvdGV4dD48dGV4dCBmaWxsPSIjMDAwMDAwIiBmb250LWZhbWlseT0ic2Fucy1zZXJpZiIgZm9udC1zaXplPSIxNCIgbGVuZ3RoQWRqdXN0PSJzcGFjaW5nIiB0ZXh0TGVuZ3RoPSI2MyIgeD0iOTM5LjI1IiB5PSIxOTkuMDYyNSI+LWlzQWN0aXZlPC90ZXh0Pjx0ZXh0IGZpbGw9IiMwMDAwMDAiIGZvbnQtZmFtaWx5PSJzYW5zLXNlcmlmIiBmb250LXNpemU9IjE0IiBsZW5ndGhBZGp1c3Q9InNwYWNpbmciIHRleHRMZW5ndGg9Ijg0IiB4PSI5MzkuMjUiIHk9IjIxNC4wNDY5Ij4tZmluZ2VycHJpbnQ8L3RleHQ+PGxpbmUgc3R5bGU9InN0cm9rZTojMDAwMDAwO3N0cm9rZS13aWR0aDowLjU7IiB4MT0iOTM0LjI1IiB4Mj0iMTA4Ni4yNSIgeTE9IjIxOS43OTY5IiB5Mj0iMjE5Ljc5NjkiLz48dGV4dCBmaWxsPSIjMDAwMDAwIiBmb250LWZhbWlseT0ic2Fucy1zZXJpZiIgZm9udC1zaXplPSIxNCIgbGVuZ3RoQWRqdXN0PSJzcGFjaW5nIiB0ZXh0TGVuZ3RoPSI1OCIgeD0iOTM5LjI1IiB5PSIyMzcuMDMxMyI+K2xvZ2luKCk8L3RleHQ+PHRleHQgZmlsbD0iIzAwMDAwMCIgZm9udC1mYW1pbHk9InNhbnMtc2VyaWYiIGZvbnQtc2l6ZT0iMTQiIGxlbmd0aEFkanVzdD0ic3BhY2luZyIgdGV4dExlbmd0aD0iNjUiIHg9IjkzOS4yNSIgeT0iMjUyLjAxNTYiPitsb2dvdXQoKTwvdGV4dD48dGV4dCBmaWxsPSIjMDAwMDAwIiBmb250LWZhbWlseT0ic2Fucy1zZXJpZiIgZm9udC1zaXplPSIxNCIgbGVuZ3RoQWRqdXN0PSJzcGFjaW5nIiB0ZXh0TGVuZ3RoPSIxNDIiIHg9IjkzOS4yNSIgeT0iMjY3Ij4rdmVyaWZ5RmluZ2VycHJpbnQoKTwvdGV4dD48dGV4dCBmaWxsPSIjMDAwMDAwIiBmb250LWZhbWlseT0ic2Fucy1zZXJpZiIgZm9udC1zaXplPSIxNCIgbGVuZ3RoQWRqdXN0PSJzcGFjaW5nIiB0ZXh0TGVuZ3RoPSIxMTQiIHg9IjkzOS4yNSIgeT0iMjgxLjk4NDQiPit1cGRhdGVQcm9maWxlKCk8L3RleHQ+PHRleHQgZmlsbD0iIzAwMDAwMCIgZm9udC1mYW1pbHk9InNhbnMtc2VyaWYiIGZvbnQtc2l6ZT0iMTQiIGxlbmd0aEFkanVzdD0ic3BhY2luZyIgdGV4dExlbmd0aD0iMTIyIiB4PSI5MzkuMjUiIHk9IjI5Ni45Njg4Ij4rY2hhbmdlUGFzc3dvcmQoKTwvdGV4dD48L2c+PCEtLWNsYXNzIFN0dWRlbnQtLT48ZyBpZD0iZWxlbV9TdHVkZW50Ij48cmVjdCBjb2RlTGluZT0iMzUiIGZpbGw9IiNGRkZGRkYiIGhlaWdodD0iMjUwLjc2NTYiIGlkPSJTdHVkZW50IiByeD0iMi41IiByeT0iMi41IiBzdHlsZT0ic3Ryb2tlOiMwMDAwMDA7c3Ryb2tlLXdpZHRoOjAuNTsiIHdpZHRoPSIxNzUiIHg9IjY1My43NSIgeT0iNTU0Ii8+PHRleHQgZmlsbD0iIzAwMDAwMCIgZm9udC1mYW1pbHk9InNhbnMtc2VyaWYiIGZvbnQtc2l6ZT0iMTQiIGxlbmd0aEFkanVzdD0ic3BhY2luZyIgdGV4dExlbmd0aD0iNDkiIHg9IjcxNi43NSIgeT0iNTcyLjIzNDQiPlN0dWRlbnQ8L3RleHQ+PGxpbmUgc3R5bGU9InN0cm9rZTojMDAwMDAwO3N0cm9rZS13aWR0aDowLjU7IiB4MT0iNjU0Ljc1IiB4Mj0iODI3Ljc1IiB5MT0iNTc4Ljk4NDQiIHkyPSI1NzguOTg0NCIvPjx0ZXh0IGZpbGw9IiMwMDAwMDAiIGZvbnQtZmFtaWx5PSJzYW5zLXNlcmlmIiBmb250LXNpemU9IjE0IiBsZW5ndGhBZGp1c3Q9InNwYWNpbmciIHRleHRMZW5ndGg9IjcwIiB4PSI2NTkuNzUiIHk9IjU5Ni4yMTg4Ij4tc3R1ZGVudElkPC90ZXh0Pjx0ZXh0IGZpbGw9IiMwMDAwMDAiIGZvbnQtZmFtaWx5PSJzYW5zLXNlcmlmIiBmb250LXNpemU9IjE0IiBsZW5ndGhBZGp1c3Q9InNwYWNpbmciIHRleHRMZW5ndGg9IjQyIiB4PSI2NTkuNzUiIHk9IjYxMS4yMDMxIj4tZ3JhZGU8L3RleHQ+PHRleHQgZmlsbD0iIzAwMDAwMCIgZm9udC1mYW1pbHk9InNhbnMtc2VyaWYiIGZvbnQtc2l6ZT0iMTQiIGxlbmd0aEFkanVzdD0ic3BhY2luZyIgdGV4dExlbmd0aD0iNTYiIHg9IjY1OS43NSIgeT0iNjI2LjE4NzUiPi1zZWN0aW9uPC90ZXh0Pjx0ZXh0IGZpbGw9IiMwMDAwMDAiIGZvbnQtZmFtaWx5PSJzYW5zLXNlcmlmIiBmb250LXNpemU9IjE0IiBsZW5ndGhBZGp1c3Q9InNwYWNpbmciIHRleHRMZW5ndGg9IjEwNiIgeD0iNjU5Ljc1IiB5PSI2NDEuMTcxOSI+LWVucm9sbG1lbnREYXRlPC90ZXh0Pjx0ZXh0IGZpbGw9IiMwMDAwMDAiIGZvbnQtZmFtaWx5PSJzYW5zLXNlcmlmIiBmb250LXNpemU9IjE0IiBsZW5ndGhBZGp1c3Q9InNwYWNpbmciIHRleHRMZW5ndGg9Ijc4IiB4PSI2NTkuNzUiIHk9IjY1Ni4xNTYzIj4tcGFyZW50TmFtZTwvdGV4dD48dGV4dCBmaWxsPSIjMDAwMDAwIiBmb250LWZhbWlseT0ic2Fucy1zZXJpZiIgZm9udC1zaXplPSIxNCIgbGVuZ3RoQWRqdXN0PSJzcGFjaW5nIiB0ZXh0TGVuZ3RoPSI5OCIgeD0iNjU5Ljc1IiB5PSI2NzEuMTQwNiI+LXBhcmVudENvbnRhY3Q8L3RleHQ+PHRleHQgZmlsbD0iIzAwMDAwMCIgZm9udC1mYW1pbHk9InNhbnMtc2VyaWYiIGZvbnQtc2l6ZT0iMTQiIGxlbmd0aEFkanVzdD0ic3BhY2luZyIgdGV4dExlbmd0aD0iMjgiIHg9IjY1OS43NSIgeT0iNjg2LjEyNSI+LWdwYTwvdGV4dD48bGluZSBzdHlsZT0ic3Ryb2tlOiMwMDAwMDA7c3Ryb2tlLXdpZHRoOjAuNTsiIHgxPSI2NTQuNzUiIHgyPSI4MjcuNzUiIHkxPSI2OTEuODc1IiB5Mj0iNjkxLjg3NSIvPjx0ZXh0IGZpbGw9IiMwMDAwMDAiIGZvbnQtZmFtaWx5PSJzYW5zLXNlcmlmIiBmb250LXNpemU9IjE0IiBsZW5ndGhBZGp1c3Q9InNwYWNpbmciIHRleHRMZW5ndGg9IjEzNyIgeD0iNjU5Ljc1IiB5PSI3MDkuMTA5NCI+K3N1Ym1pdEFzc2Vzc21lbnQoKTwvdGV4dD48dGV4dCBmaWxsPSIjMDAwMDAwIiBmb250LWZhbWlseT0ic2Fucy1zZXJpZiIgZm9udC1zaXplPSIxNCIgbGVuZ3RoQWRqdXN0PSJzcGFjaW5nIiB0ZXh0TGVuZ3RoPSIxMzAiIHg9IjY1OS43NSIgeT0iNzI0LjA5MzgiPit2aWV3QXNzZXNzbWVudHMoKTwvdGV4dD48dGV4dCBmaWxsPSIjMDAwMDAwIiBmb250LWZhbWlseT0ic2Fucy1zZXJpZiIgZm9udC1zaXplPSIxNCIgbGVuZ3RoQWRqdXN0PSJzcGFjaW5nIiB0ZXh0TGVuZ3RoPSIxNTgiIHg9IjY1OS43NSIgeT0iNzM5LjA3ODEiPit2aWV3U3VibWlzc2lvbk1hcmtzKCk8L3RleHQ+PHRleHQgZmlsbD0iIzAwMDAwMCIgZm9udC1mYW1pbHk9InNhbnMtc2VyaWYiIGZvbnQtc2l6ZT0iMTQiIGxlbmd0aEFkanVzdD0ic3BhY2luZyIgdGV4dExlbmd0aD0iODgiIHg9IjY1OS43NSIgeT0iNzU0LjA2MjUiPit2aWV3RXhhbXMoKTwvdGV4dD48dGV4dCBmaWxsPSIjMDAwMDAwIiBmb250LWZhbWlseT0ic2Fucy1zZXJpZiIgZm9udC1zaXplPSIxNCIgbGVuZ3RoQWRqdXN0PSJzcGFjaW5nIiB0ZXh0TGVuZ3RoPSIxMzAiIHg9IjY1OS43NSIgeT0iNzY5LjA0NjkiPit2aWV3RXhhbVJlc3VsdHMoKTwvdGV4dD48dGV4dCBmaWxsPSIjMDAwMDAwIiBmb250LWZhbWlseT0ic2Fucy1zZXJpZiIgZm9udC1zaXplPSIxNCIgbGVuZ3RoQWRqdXN0PSJzcGFjaW5nIiB0ZXh0TGVuZ3RoPSIxNjMiIHg9IjY1OS43NSIgeT0iNzg0LjAzMTMiPithcHBseUZvclJlY29ycmVjdGlvbigpPC90ZXh0Pjx0ZXh0IGZpbGw9IiMwMDAwMDAiIGZvbnQtZmFtaWx5PSJzYW5zLXNlcmlmIiBmb250LXNpemU9IjE0IiBsZW5ndGhBZGp1c3Q9InNwYWNpbmciIHRleHRMZW5ndGg9IjEwNyIgeD0iNjU5Ljc1IiB5PSI3OTkuMDE1NiI+K2NhbGN1bGF0ZUdQQSgpPC90ZXh0PjwvZz48IS0tY2xhc3MgVGVhY2hlci0tPjxnIGlkPSJlbGVtX1RlYWNoZXIiPjxyZWN0IGNvZGVMaW5lPSI1MyIgZmlsbD0iI0ZGRkZGRiIgaGVpZ2h0PSIxOTAuODI4MSIgaWQ9IlRlYWNoZXIiIHJ4PSIyLjUiIHJ5PSIyLjUiIHN0eWxlPSJzdHJva2U6IzAwMDAwMDtzdHJva2Utd2lkdGg6MC41OyIgd2lkdGg9IjE0OSIgeD0iODIzLjc1IiB5PSIxOTI5Ii8+PHRleHQgZmlsbD0iIzAwMDAwMCIgZm9udC1mYW1pbHk9InNhbnMtc2VyaWYiIGZvbnQtc2l6ZT0iMTQiIGxlbmd0aEFkanVzdD0ic3BhY2luZyIgdGV4dExlbmd0aD0iNDkiIHg9Ijg3My43NSIgeT0iMTk0Ny4yMzQ0Ij5UZWFjaGVyPC90ZXh0PjxsaW5lIHN0eWxlPSJzdHJva2U6IzAwMDAwMDtzdHJva2Utd2lkdGg6MC41OyIgeDE9IjgyNC43NSIgeDI9Ijk3MS43NSIgeTE9IjE5NTMuOTg0NCIgeTI9IjE5NTMuOTg0NCIvPjx0ZXh0IGZpbGw9IiMwMDAwMDAiIGZvbnQtZmFtaWx5PSJzYW5zLXNlcmlmIiBmb250LXNpemU9IjE0IiBsZW5ndGhBZGp1c3Q9InNwYWNpbmciIHRleHRMZW5ndGg9IjcwIiB4PSI4MjkuNzUiIHk9IjE5NzEuMjE4OCI+LXRlYWNoZXJJZDwvdGV4dD48dGV4dCBmaWxsPSIjMDAwMDAwIiBmb250LWZhbWlseT0ic2Fucy1zZXJpZiIgZm9udC1zaXplPSIxNCIgbGVuZ3RoQWRqdXN0PSJzcGFjaW5nIiB0ZXh0TGVuZ3RoPSI3OCIgeD0iODI5Ljc1IiB5PSIxOTg2LjIwMzEiPi1kZXBhcnRtZW50PC90ZXh0Pjx0ZXh0IGZpbGw9IiMwMDAwMDAiIGZvbnQtZmFtaWx5PSJzYW5zLXNlcmlmIiBmb250LXNpemU9IjE0IiBsZW5ndGhBZGp1c3Q9InNwYWNpbmciIHRleHRMZW5ndGg9IjYzIiB4PSI4MjkuNzUiIHk9IjIwMDEuMTg3NSI+LXN1YmplY3RzPC90ZXh0Pjx0ZXh0IGZpbGw9IiMwMDAwMDAiIGZvbnQtZmFtaWx5PSJzYW5zLXNlcmlmIiBmb250LXNpemU9IjE0IiBsZW5ndGhBZGp1c3Q9InNwYWNpbmciIHRleHRMZW5ndGg9Ijg0IiB4PSI4MjkuNzUiIHk9IjIwMTYuMTcxOSI+LWpvaW5pbmdEYXRlPC90ZXh0Pjx0ZXh0IGZpbGw9IiMwMDAwMDAiIGZvbnQtZmFtaWx5PSJzYW5zLXNlcmlmIiBmb250LXNpemU9IjE0IiBsZW5ndGhBZGp1c3Q9InNwYWNpbmciIHRleHRMZW5ndGg9Ijk4IiB4PSI4MjkuNzUiIHk9IjIwMzEuMTU2MyI+LXF1YWxpZmljYXRpb248L3RleHQ+PGxpbmUgc3R5bGU9InN0cm9rZTojMDAwMDAwO3N0cm9rZS13aWR0aDowLjU7IiB4MT0iODI0Ljc1IiB4Mj0iOTcxLjc1IiB5MT0iMjAzNi45MDYzIiB5Mj0iMjAzNi45MDYzIi8+PHRleHQgZmlsbD0iIzAwMDAwMCIgZm9udC1mYW1pbHk9InNhbnMtc2VyaWYiIGZvbnQtc2l6ZT0iMTQiIGxlbmd0aEFkanVzdD0ic3BhY2luZyIgdGV4dExlbmd0aD0iMTE1IiB4PSI4MjkuNzUiIHk9IjIwNTQuMTQwNiI+K21hbmFnZVN0dWRlbnQoKTwvdGV4dD48dGV4dCBmaWxsPSIjMDAwMDAwIiBmb250LWZhbWlseT0ic2Fucy1zZXJpZiIgZm9udC1zaXplPSIxNCIgbGVuZ3RoQWRqdXN0PSJzcGFjaW5nIiB0ZXh0TGVuZ3RoPSIxMjEiIHg9IjgyOS43NSIgeT0iMjA2OS4xMjUiPitnZW5lcmF0ZVJlcG9ydCgpPC90ZXh0Pjx0ZXh0IGZpbGw9IiMwMDAwMDAiIGZvbnQtZmFtaWx5PSJzYW5zLXNlcmlmIiBmb250LXNpemU9IjE0IiBsZW5ndGhBZGp1c3Q9InNwYWNpbmciIHRleHRMZW5ndGg9IjEzNyIgeD0iODI5Ljc1IiB5PSIyMDg0LjEwOTQiPittYW5hZ2VBc3Nlc3NtZW50KCk8L3RleHQ+PHRleHQgZmlsbD0iIzAwMDAwMCIgZm9udC1mYW1pbHk9InNhbnMtc2VyaWYiIGZvbnQtc2l6ZT0iMTQiIGxlbmd0aEFkanVzdD0ic3BhY2luZyIgdGV4dExlbmd0aD0iOTUiIHg9IjgyOS43NSIgeT0iMjA5OS4wOTM4Ij4rbWFuYWdlRXhhbSgpPC90ZXh0Pjx0ZXh0IGZpbGw9IiMwMDAwMDAiIGZvbnQtZmFtaWx5PSJzYW5zLXNlcmlmIiBmb250LXNpemU9IjE0IiBsZW5ndGhBZGp1c3Q9InNwYWNpbmciIHRleHRMZW5ndGg9IjEyOSIgeD0iODI5Ljc1IiB5PSIyMTE0LjA3ODEiPitncmFkZVN1Ym1pc3Npb24oKTwvdGV4dD48L2c+PCEtLWNsYXNzIFNlY3Rpb25IZWFkLS0+PGcgaWQ9ImVsZW1fU2VjdGlvbkhlYWQiPjxyZWN0IGNvZGVMaW5lPSI2NyIgZmlsbD0iI0ZGRkZGRiIgaGVpZ2h0PSIxNDUuODc1IiBpZD0iU2VjdGlvbkhlYWQiIHJ4PSIyLjUiIHJ5PSIyLjUiIHN0eWxlPSJzdHJva2U6IzAwMDAwMDtzdHJva2Utd2lkdGg6MC41OyIgd2lkdGg9IjE4MiIgeD0iMTA2My4yNSIgeT0iODg3LjUiLz48dGV4dCBmaWxsPSIjMDAwMDAwIiBmb250LWZhbWlseT0ic2Fucy1zZXJpZiIgZm9udC1zaXplPSIxNCIgbGVuZ3RoQWRqdXN0PSJzcGFjaW5nIiB0ZXh0TGVuZ3RoPSI3NyIgeD0iMTExNS43NSIgeT0iOTA1LjczNDQiPlNlY3Rpb25IZWFkPC90ZXh0PjxsaW5lIHN0eWxlPSJzdHJva2U6IzAwMDAwMDtzdHJva2Utd2lkdGg6MC41OyIgeDE9IjEwNjQuMjUiIHgyPSIxMjQ0LjI1IiB5MT0iOTEyLjQ4NDQiIHkyPSI5MTIuNDg0NCIvPjx0ZXh0IGZpbGw9IiMwMDAwMDAiIGZvbnQtZmFtaWx5PSJzYW5zLXNlcmlmIiBmb250LXNpemU9IjE0IiBsZW5ndGhBZGp1c3Q9InNwYWNpbmciIHRleHRMZW5ndGg9IjcwIiB4PSIxMDY5LjI1IiB5PSI5MjkuNzE4OCI+LXNlY3Rpb25JZDwvdGV4dD48dGV4dCBmaWxsPSIjMDAwMDAwIiBmb250LWZhbWlseT0ic2Fucy1zZXJpZiIgZm9udC1zaXplPSIxNCIgbGVuZ3RoQWRqdXN0PSJzcGFjaW5nIiB0ZXh0TGVuZ3RoPSI3OCIgeD0iMTA2OS4yNSIgeT0iOTQ0LjcwMzEiPi1kZXBhcnRtZW50PC90ZXh0Pjx0ZXh0IGZpbGw9IiMwMDAwMDAiIGZvbnQtZmFtaWx5PSJzYW5zLXNlcmlmIiBmb250LXNpemU9IjE0IiBsZW5ndGhBZGp1c3Q9InNwYWNpbmciIHRleHRMZW5ndGg9IjExOSIgeD0iMTA2OS4yNSIgeT0iOTU5LjY4NzUiPi1hc3NpZ25lZFRlYWNoZXJzPC90ZXh0PjxsaW5lIHN0eWxlPSJzdHJva2U6IzAwMDAwMDtzdHJva2Utd2lkdGg6MC41OyIgeDE9IjEwNjQuMjUiIHgyPSIxMjQ0LjI1IiB5MT0iOTY1LjQzNzUiIHkyPSI5NjUuNDM3NSIvPjx0ZXh0IGZpbGw9IiMwMDAwMDAiIGZvbnQtZmFtaWx5PSJzYW5zLXNlcmlmIiBmb250LXNpemU9IjE0IiBsZW5ndGhBZGp1c3Q9InNwYWNpbmciIHRleHRMZW5ndGg9IjExNSIgeD0iMTA2OS4yNSIgeT0iOTgyLjY3MTkiPittYW5hZ2VUZWFjaGVyKCk8L3RleHQ+PHRleHQgZmlsbD0iIzAwMDAwMCIgZm9udC1mYW1pbHk9InNhbnMtc2VyaWYiIGZvbnQtc2l6ZT0iMTQiIGxlbmd0aEFkanVzdD0ic3BhY2luZyIgdGV4dExlbmd0aD0iMTMwIiB4PSIxMDY5LjI1IiB5PSI5OTcuNjU2MyI+K21hbmFnZVRpbWVUYWJsZSgpPC90ZXh0Pjx0ZXh0IGZpbGw9IiMwMDAwMDAiIGZvbnQtZmFtaWx5PSJzYW5zLXNlcmlmIiBmb250LXNpemU9IjE0IiBsZW5ndGhBZGp1c3Q9InNwYWNpbmciIHRleHRMZW5ndGg9IjE1NiIgeD0iMTA2OS4yNSIgeT0iMTAxMi42NDA2Ij4rYXBwcm92ZUxlYXZlUmVxdWVzdCgpPC90ZXh0Pjx0ZXh0IGZpbGw9IiMwMDAwMDAiIGZvbnQtZmFtaWx5PSJzYW5zLXNlcmlmIiBmb250LXNpemU9IjE0IiBsZW5ndGhBZGp1c3Q9InNwYWNpbmciIHRleHRMZW5ndGg9IjE3MCIgeD0iMTA2OS4yNSIgeT0iMTAyNy42MjUiPitnZW5lcmF0ZVNlY3Rpb25SZXBvcnQoKTwvdGV4dD48L2c+PCEtLWNsYXNzIFByaW5jaXBhbC0tPjxnIGlkPSJlbGVtX1ByaW5jaXBhbCI+PHJlY3QgY29kZUxpbmU9Ijc4IiBmaWxsPSIjRkZGRkZGIiBoZWlnaHQ9IjEzMC44OTA2IiBpZD0iUHJpbmNpcGFsIiByeD0iMi41IiByeT0iMi41IiBzdHlsZT0ic3Ryb2tlOiMwMDAwMDA7c3Ryb2tlLXdpZHRoOjAuNTsiIHdpZHRoPSIxODMiIHg9IjExMjQuNzUiIHk9IjM2MyIvPjx0ZXh0IGZpbGw9IiMwMDAwMDAiIGZvbnQtZmFtaWx5PSJzYW5zLXNlcmlmIiBmb250LXNpemU9IjE0IiBsZW5ndGhBZGp1c3Q9InNwYWNpbmciIHRleHRMZW5ndGg9IjYzIiB4PSIxMTg0Ljc1IiB5PSIzODEuMjM0NCI+UHJpbmNpcGFsPC90ZXh0PjxsaW5lIHN0eWxlPSJzdHJva2U6IzAwMDAwMDtzdHJva2Utd2lkdGg6MC41OyIgeDE9IjExMjUuNzUiIHgyPSIxMzA2Ljc1IiB5MT0iMzg3Ljk4NDQiIHkyPSIzODcuOTg0NCIvPjx0ZXh0IGZpbGw9IiMwMDAwMDAiIGZvbnQtZmFtaWx5PSJzYW5zLXNlcmlmIiBmb250LXNpemU9IjE0IiBsZW5ndGhBZGp1c3Q9InNwYWNpbmciIHRleHRMZW5ndGg9IjExMyIgeD0iMTEzMC43NSIgeT0iNDA1LjIxODgiPi1hcHBvaW50bWVudERhdGU8L3RleHQ+PGxpbmUgc3R5bGU9InN0cm9rZTojMDAwMDAwO3N0cm9rZS13aWR0aDowLjU7IiB4MT0iMTEyNS43NSIgeDI9IjEzMDYuNzUiIHkxPSI0MTAuOTY4OCIgeTI9IjQxMC45Njg4Ii8+PHRleHQgZmlsbD0iIzAwMDAwMCIgZm9udC1mYW1pbHk9InNhbnMtc2VyaWYiIGZvbnQtc2l6ZT0iMTQiIGxlbmd0aEFkanVzdD0ic3BhY2luZyIgdGV4dExlbmd0aD0iMTcxIiB4PSIxMTMwLjc1IiB5PSI0MjguMjAzMSI+K2Jyb2FkY2FzdEFubm91bmNlbWVudCgpPC90ZXh0Pjx0ZXh0IGZpbGw9IiMwMDAwMDAiIGZvbnQtZmFtaWx5PSJzYW5zLXNlcmlmIiBmb250LXNpemU9IjE0IiBsZW5ndGhBZGp1c3Q9InNwYWNpbmciIHRleHRMZW5ndGg9IjExNSIgeD0iMTEzMC43NSIgeT0iNDQzLjE4NzUiPityZXZpZXdSZXBvcnRzKCk8L3RleHQ+PHRleHQgZmlsbD0iIzAwMDAwMCIgZm9udC1mYW1pbHk9InNhbnMtc2VyaWYiIGZvbnQtc2l6ZT0iMTQiIGxlbmd0aEFkanVzdD0ic3BhY2luZyIgdGV4dExlbmd0aD0iMTE0IiB4PSIxMTMwLjc1IiB5PSI0NTguMTcxOSI+K2FwcHJvdmVFdmVudHMoKTwvdGV4dD48dGV4dCBmaWxsPSIjMDAwMDAwIiBmb250LWZhbWlseT0ic2Fucy1zZXJpZiIgZm9udC1zaXplPSIxNCIgbGVuZ3RoQWRqdXN0PSJzcGFjaW5nIiB0ZXh0TGVuZ3RoPSIxMDEiIHg9IjExMzAuNzUiIHk9IjQ3My4xNTYzIj4rbWFuYWdlU3RhZmYoKTwvdGV4dD48dGV4dCBmaWxsPSIjMDAwMDAwIiBmb250LWZhbWlseT0ic2Fucy1zZXJpZiIgZm9udC1zaXplPSIxNCIgbGVuZ3RoQWRqdXN0PSJzcGFjaW5nIiB0ZXh0TGVuZ3RoPSIxNDQiIHg9IjExMzAuNzUiIHk9IjQ4OC4xNDA2Ij4rcmV2aWV3UGVyZm9ybWFuY2UoKTwvdGV4dD48L2c+PCEtLWNsYXNzIEFkbWluLS0+PGcgaWQ9ImVsZW1fQWRtaW4iPjxyZWN0IGNvZGVMaW5lPSI4OCIgZmlsbD0iI0ZGRkZGRiIgaGVpZ2h0PSIxNDUuODc1IiBpZD0iQWRtaW4iIHJ4PSIyLjUiIHJ5PSIyLjUiIHN0eWxlPSJzdHJva2U6IzAwMDAwMDtzdHJva2Utd2lkdGg6MC41OyIgd2lkdGg9IjE4MyIgeD0iMTg0Ljc1IiB5PSIxMTMxIi8+PHRleHQgZmlsbD0iIzAwMDAwMCIgZm9udC1mYW1pbHk9InNhbnMtc2VyaWYiIGZvbnQtc2l6ZT0iMTQiIGxlbmd0aEFkanVzdD0ic3BhY2luZyIgdGV4dExlbmd0aD0iMzYiIHg9IjI1OC4yNSIgeT0iMTE0OS4yMzQ0Ij5BZG1pbjwvdGV4dD48bGluZSBzdHlsZT0ic3Ryb2tlOiMwMDAwMDA7c3Ryb2tlLXdpZHRoOjAuNTsiIHgxPSIxODUuNzUiIHgyPSIzNjYuNzUiIHkxPSIxMTU1Ljk4NDQiIHkyPSIxMTU1Ljk4NDQiLz48dGV4dCBmaWxsPSIjMDAwMDAwIiBmb250LWZhbWlseT0ic2Fucy1zZXJpZiIgZm9udC1zaXplPSIxNCIgbGVuZ3RoQWRqdXN0PSJzcGFjaW5nIiB0ZXh0TGVuZ3RoPSI1NyIgeD0iMTkwLjc1IiB5PSIxMTczLjIxODgiPi1hZG1pbklkPC90ZXh0Pjx0ZXh0IGZpbGw9IiMwMDAwMDAiIGZvbnQtZmFtaWx5PSJzYW5zLXNlcmlmIiBmb250LXNpemU9IjE0IiBsZW5ndGhBZGp1c3Q9InNwYWNpbmciIHRleHRMZW5ndGg9Ijg0IiB4PSIxOTAuNzUiIHk9IjExODguMjAzMSI+LWFjY2Vzc0xldmVsPC90ZXh0PjxsaW5lIHN0eWxlPSJzdHJva2U6IzAwMDAwMDtzdHJva2Utd2lkdGg6MC41OyIgeDE9IjE4NS43NSIgeDI9IjM2Ni43NSIgeTE9IjExOTMuOTUzMSIgeTI9IjExOTMuOTUzMSIvPjx0ZXh0IGZpbGw9IiMwMDAwMDAiIGZvbnQtZmFtaWx5PSJzYW5zLXNlcmlmIiBmb250LXNpemU9IjE0IiBsZW5ndGhBZGp1c3Q9InNwYWNpbmciIHRleHRMZW5ndGg9IjEwMSIgeD0iMTkwLjc1IiB5PSIxMjExLjE4NzUiPittYW5hZ2VVc2VycygpPC90ZXh0Pjx0ZXh0IGZpbGw9IiMwMDAwMDAiIGZvbnQtZmFtaWx5PSJzYW5zLXNlcmlmIiBmb250LXNpemU9IjE0IiBsZW5ndGhBZGp1c3Q9InNwYWNpbmciIHRleHRMZW5ndGg9IjEyOSIgeD0iMTkwLjc1IiB5PSIxMjI2LjE3MTkiPitjb25maWd1cmVTeXN0ZW0oKTwvdGV4dD48dGV4dCBmaWxsPSIjMDAwMDAwIiBmb250LWZhbWlseT0ic2Fucy1zZXJpZiIgZm9udC1zaXplPSIxNCIgbGVuZ3RoQWRqdXN0PSJzcGFjaW5nIiB0ZXh0TGVuZ3RoPSI5MyIgeD0iMTkwLjc1IiB5PSIxMjQxLjE1NjMiPitiYWNrdXBEYXRhKCk8L3RleHQ+PHRleHQgZmlsbD0iIzAwMDAwMCIgZm9udC1mYW1pbHk9InNhbnMtc2VyaWYiIGZvbnQtc2l6ZT0iMTQiIGxlbmd0aEFkanVzdD0ic3BhY2luZyIgdGV4dExlbmd0aD0iMTcxIiB4PSIxOTAuNzUiIHk9IjEyNTYuMTQwNiI+K2dlbmVyYXRlU3lzdGVtUmVwb3J0cygpPC90ZXh0Pjx0ZXh0IGZpbGw9IiMwMDAwMDAiIGZvbnQtZmFtaWx5PSJzYW5zLXNlcmlmIiBmb250LXNpemU9IjE0IiBsZW5ndGhBZGp1c3Q9InNwYWNpbmciIHRleHRMZW5ndGg9IjE0NCIgeD0iMTkwLjc1IiB5PSIxMjcxLjEyNSI+K21hbmFnZVBlcm1pc3Npb25zKCk8L3RleHQ+PC9nPjwhLS1jbGFzcyBBc3Nlc3NtZW50LS0+PGcgaWQ9ImVsZW1fQXNzZXNzbWVudCI+PHJlY3QgY29kZUxpbmU9Ijk5IiBmaWxsPSIjRkZGRkZGIiBoZWlnaHQ9IjIwNS44MTI1IiBpZD0iQXNzZXNzbWVudCIgcng9IjIuNSIgcnk9IjIuNSIgc3R5bGU9InN0cm9rZTojMDAwMDAwO3N0cm9rZS13aWR0aDowLjU7IiB3aWR0aD0iMTQ4IiB4PSI2OTcuMjUiIHk9IjIxODAiLz48dGV4dCBmaWxsPSIjMDAwMDAwIiBmb250LWZhbWlseT0ic2Fucy1zZXJpZiIgZm9udC1zaXplPSIxNCIgbGVuZ3RoQWRqdXN0PSJzcGFjaW5nIiB0ZXh0TGVuZ3RoPSI3MSIgeD0iNzM1Ljc1IiB5PSIyMTk4LjIzNDQiPkFzc2Vzc21lbnQ8L3RleHQ+PGxpbmUgc3R5bGU9InN0cm9rZTojMDAwMDAwO3N0cm9rZS13aWR0aDowLjU7IiB4MT0iNjk4LjI1IiB4Mj0iODQ0LjI1IiB5MT0iMjIwNC45ODQ0IiB5Mj0iMjIwNC45ODQ0Ii8+PHRleHQgZmlsbD0iIzAwMDAwMCIgZm9udC1mYW1pbHk9InNhbnMtc2VyaWYiIGZvbnQtc2l6ZT0iMTQiIGxlbmd0aEFkanVzdD0ic3BhY2luZyIgdGV4dExlbmd0aD0iMjEiIHg9IjcwMy4yNSIgeT0iMjIyMi4yMTg4Ij4taWQ8L3RleHQ+PHRleHQgZmlsbD0iIzAwMDAwMCIgZm9udC1mYW1pbHk9InNhbnMtc2VyaWYiIGZvbnQtc2l6ZT0iMTQiIGxlbmd0aEFkanVzdD0ic3BhY2luZyIgdGV4dExlbmd0aD0iNDIiIHg9IjcwMy4yNSIgeT0iMjIzNy4yMDMxIj4tdGl0bGU8L3RleHQ+PHRleHQgZmlsbD0iIzAwMDAwMCIgZm9udC1mYW1pbHk9InNhbnMtc2VyaWYiIGZvbnQtc2l6ZT0iMTQiIGxlbmd0aEFkanVzdD0ic3BhY2luZyIgdGV4dExlbmd0aD0iODQiIHg9IjcwMy4yNSIgeT0iMjI1Mi4xODc1Ij4tZGVzY3JpcHRpb248L3RleHQ+PHRleHQgZmlsbD0iIzAwMDAwMCIgZm9udC1mYW1pbHk9InNhbnMtc2VyaWYiIGZvbnQtc2l6ZT0iMTQiIGxlbmd0aEFkanVzdD0ic3BhY2luZyIgdGV4dExlbmd0aD0iNTYiIHg9IjcwMy4yNSIgeT0iMjI2Ny4xNzE5Ij4tZHVlRGF0ZTwvdGV4dD48dGV4dCBmaWxsPSIjMDAwMDAwIiBmb250LWZhbWlseT0ic2Fucy1zZXJpZiIgZm9udC1zaXplPSIxNCIgbGVuZ3RoQWRqdXN0PSJzcGFjaW5nIiB0ZXh0TGVuZ3RoPSI3NyIgeD0iNzAzLjI1IiB5PSIyMjgyLjE1NjMiPi10b3RhbE1hcmtzPC90ZXh0Pjx0ZXh0IGZpbGw9IiMwMDAwMDAiIGZvbnQtZmFtaWx5PSJzYW5zLXNlcmlmIiBmb250LXNpemU9IjE0IiBsZW5ndGhBZGp1c3Q9InNwYWNpbmciIHRleHRMZW5ndGg9IjU2IiB4PSI3MDMuMjUiIHk9IjIyOTcuMTQwNiI+LXN1YmplY3Q8L3RleHQ+PHRleHQgZmlsbD0iIzAwMDAwMCIgZm9udC1mYW1pbHk9InNhbnMtc2VyaWYiIGZvbnQtc2l6ZT0iMTQiIGxlbmd0aEFkanVzdD0ic3BhY2luZyIgdGV4dExlbmd0aD0iNzciIHg9IjcwMy4yNSIgeT0iMjMxMi4xMjUiPi1hc3NpZ25lZFRvPC90ZXh0PjxsaW5lIHN0eWxlPSJzdHJva2U6IzAwMDAwMDtzdHJva2Utd2lkdGg6MC41OyIgeDE9IjY5OC4yNSIgeDI9Ijg0NC4yNSIgeTE9IjIzMTcuODc1IiB5Mj0iMjMxNy44NzUiLz48dGV4dCBmaWxsPSIjMDAwMDAwIiBmb250LWZhbWlseT0ic2Fucy1zZXJpZiIgZm9udC1zaXplPSIxNCIgbGVuZ3RoQWRqdXN0PSJzcGFjaW5nIiB0ZXh0TGVuZ3RoPSIxMzYiIHg9IjcwMy4yNSIgeT0iMjMzNS4xMDk0Ij4rY3JlYXRlQXNzZXNzbWVudCgpPC90ZXh0Pjx0ZXh0IGZpbGw9IiMwMDAwMDAiIGZvbnQtZmFtaWx5PSJzYW5zLXNlcmlmIiBmb250LXNpemU9IjE0IiBsZW5ndGhBZGp1c3Q9InNwYWNpbmciIHRleHRMZW5ndGg9IjEzNiIgeD0iNzAzLjI1IiB5PSIyMzUwLjA5MzgiPit1cGRhdGVBc3Nlc3NtZW50KCk8L3RleHQ+PHRleHQgZmlsbD0iIzAwMDAwMCIgZm9udC1mYW1pbHk9InNhbnMtc2VyaWYiIGZvbnQtc2l6ZT0iMTQiIGxlbmd0aEFkanVzdD0ic3BhY2luZyIgdGV4dExlbmd0aD0iMTM2IiB4PSI3MDMuMjUiIHk9IjIzNjUuMDc4MSI+K2RlbGV0ZUFzc2Vzc21lbnQoKTwvdGV4dD48dGV4dCBmaWxsPSIjMDAwMDAwIiBmb250LWZhbWlseT0ic2Fucy1zZXJpZiIgZm9udC1zaXplPSIxNCIgbGVuZ3RoQWRqdXN0PSJzcGFjaW5nIiB0ZXh0TGVuZ3RoPSIxMzUiIHg9IjcwMy4yNSIgeT0iMjM4MC4wNjI1Ij4rYXNzaWduVG9TdHVkZW50cygpPC90ZXh0PjwvZz48IS0tY2xhc3MgRXhhbS0tPjxnIGlkPSJlbGVtX0V4YW0iPjxyZWN0IGNvZGVMaW5lPSIxMTQiIGZpbGw9IiNGRkZGRkYiIGhlaWdodD0iMjA1LjgxMjUiIGlkPSJFeGFtIiByeD0iMi41IiByeT0iMi41IiBzdHlsZT0ic3Ryb2tlOiMwMDAwMDA7c3Ryb2tlLXdpZHRoOjAuNTsiIHdpZHRoPSIxNDciIHg9IjE4NC43NSIgeT0iMjE4MCIvPjx0ZXh0IGZpbGw9IiMwMDAwMDAiIGZvbnQtZmFtaWx5PSJzYW5zLXNlcmlmIiBmb250LXNpemU9IjE0IiBsZW5ndGhBZGp1c3Q9InNwYWNpbmciIHRleHRMZW5ndGg9IjI5IiB4PSIyNDMuNzUiIHk9IjIxOTguMjM0NCI+RXhhbTwvdGV4dD48bGluZSBzdHlsZT0ic3Ryb2tlOiMwMDAwMDA7c3Ryb2tlLXdpZHRoOjAuNTsiIHgxPSIxODUuNzUiIHgyPSIzMzAuNzUiIHkxPSIyMjA0Ljk4NDQiIHkyPSIyMjA0Ljk4NDQiLz48dGV4dCBmaWxsPSIjMDAwMDAwIiBmb250LWZhbWlseT0ic2Fucy1zZXJpZiIgZm9udC1zaXplPSIxNCIgbGVuZ3RoQWRqdXN0PSJzcGFjaW5nIiB0ZXh0TGVuZ3RoPSIyMSIgeD0iMTkwLjc1IiB5PSIyMjIyLjIxODgiPi1pZDwvdGV4dD48dGV4dCBmaWxsPSIjMDAwMDAwIiBmb250LWZhbWlseT0ic2Fucy1zZXJpZiIgZm9udC1zaXplPSIxNCIgbGVuZ3RoQWRqdXN0PSJzcGFjaW5nIiB0ZXh0TGVuZ3RoPSIzNiIgeD0iMTkwLjc1IiB5PSIyMjM3LjIwMzEiPi1uYW1lPC90ZXh0Pjx0ZXh0IGZpbGw9IiMwMDAwMDAiIGZvbnQtZmFtaWx5PSJzYW5zLXNlcmlmIiBmb250LXNpemU9IjE0IiBsZW5ndGhBZGp1c3Q9InNwYWNpbmciIHRleHRMZW5ndGg9IjU2IiB4PSIxOTAuNzUiIHk9IjIyNTIuMTg3NSI+LXN1YmplY3Q8L3RleHQ+PHRleHQgZmlsbD0iIzAwMDAwMCIgZm9udC1mYW1pbHk9InNhbnMtc2VyaWYiIGZvbnQtc2l6ZT0iMTQiIGxlbmd0aEFkanVzdD0ic3BhY2luZyIgdGV4dExlbmd0aD0iMzUiIHg9IjE5MC43NSIgeT0iMjI2Ny4xNzE5Ij4tZGF0ZTwvdGV4dD48dGV4dCBmaWxsPSIjMDAwMDAwIiBmb250LWZhbWlseT0ic2Fucy1zZXJpZiIgZm9udC1zaXplPSIxNCIgbGVuZ3RoQWRqdXN0PSJzcGFjaW5nIiB0ZXh0TGVuZ3RoPSI2MyIgeD0iMTkwLjc1IiB5PSIyMjgyLjE1NjMiPi1kdXJhdGlvbjwvdGV4dD48dGV4dCBmaWxsPSIjMDAwMDAwIiBmb250LWZhbWlseT0ic2Fucy1zZXJpZiIgZm9udC1zaXplPSIxNCIgbGVuZ3RoQWRqdXN0PSJzcGFjaW5nIiB0ZXh0TGVuZ3RoPSI3NyIgeD0iMTkwLjc1IiB5PSIyMjk3LjE0MDYiPi10b3RhbE1hcmtzPC90ZXh0PjxsaW5lIHN0eWxlPSJzdHJva2U6IzAwMDAwMDtzdHJva2Utd2lkdGg6MC41OyIgeDE9IjE4NS43NSIgeDI9IjMzMC43NSIgeTE9IjIzMDIuODkwNiIgeTI9IjIzMDIuODkwNiIvPjx0ZXh0IGZpbGw9IiMwMDAwMDAiIGZvbnQtZmFtaWx5PSJzYW5zLXNlcmlmIiBmb250LXNpemU9IjE0IiBsZW5ndGhBZGp1c3Q9InNwYWNpbmciIHRleHRMZW5ndGg9Ijk0IiB4PSIxOTAuNzUiIHk9IjIzMjAuMTI1Ij4rY3JlYXRlRXhhbSgpPC90ZXh0Pjx0ZXh0IGZpbGw9IiMwMDAwMDAiIGZvbnQtZmFtaWx5PSJzYW5zLXNlcmlmIiBmb250LXNpemU9IjE0IiBsZW5ndGhBZGp1c3Q9InNwYWNpbmciIHRleHRMZW5ndGg9Ijk0IiB4PSIxOTAuNzUiIHk9IjIzMzUuMTA5NCI+K3VwZGF0ZUV4YW0oKTwvdGV4dD48dGV4dCBmaWxsPSIjMDAwMDAwIiBmb250LWZhbWlseT0ic2Fucy1zZXJpZiIgZm9udC1zaXplPSIxNCIgbGVuZ3RoQWRqdXN0PSJzcGFjaW5nIiB0ZXh0TGVuZ3RoPSI5NCIgeD0iMTkwLjc1IiB5PSIyMzUwLjA5MzgiPitkZWxldGVFeGFtKCk8L3RleHQ+PHRleHQgZmlsbD0iIzAwMDAwMCIgZm9udC1mYW1pbHk9InNhbnMtc2VyaWYiIGZvbnQtc2l6ZT0iMTQiIGxlbmd0aEFkanVzdD0ic3BhY2luZyIgdGV4dExlbmd0aD0iMTM1IiB4PSIxOTAuNzUiIHk9IjIzNjUuMDc4MSI+K2Fzc2lnblRvU3R1ZGVudHMoKTwvdGV4dD48dGV4dCBmaWxsPSIjMDAwMDAwIiBmb250LWZhbWlseT0ic2Fucy1zZXJpZiIgZm9udC1zaXplPSIxNCIgbGVuZ3RoQWRqdXN0PSJzcGFjaW5nIiB0ZXh0TGVuZ3RoPSIxMjgiIHg9IjE5MC43NSIgeT0iMjM4MC4wNjI1Ij4rZ2VuZXJhdGVSZXN1bHRzKCk8L3RleHQ+PC9nPjwhLS1jbGFzcyBFeGFtUmVzdWx0LS0+PGcgaWQ9ImVsZW1fRXhhbVJlc3VsdCI+PHJlY3QgY29kZUxpbmU9IjEyOSIgZmlsbD0iI0ZGRkZGRiIgaGVpZ2h0PSIxOTAuODI4MSIgaWQ9IkV4YW1SZXN1bHQiIHJ4PSIyLjUiIHJ5PSIyLjUiIHN0eWxlPSJzdHJva2U6IzAwMDAwMDtzdHJva2Utd2lkdGg6MC41OyIgd2lkdGg9IjEzMyIgeD0iMjkuNzUiIHk9IjI0NDYiLz48dGV4dCBmaWxsPSIjMDAwMDAwIiBmb250LWZhbWlseT0ic2Fucy1zZXJpZiIgZm9udC1zaXplPSIxNCIgbGVuZ3RoQWRqdXN0PSJzcGFjaW5nIiB0ZXh0TGVuZ3RoPSI3MSIgeD0iNjAuNzUiIHk9IjI0NjQuMjM0NCI+RXhhbVJlc3VsdDwvdGV4dD48bGluZSBzdHlsZT0ic3Ryb2tlOiMwMDAwMDA7c3Ryb2tlLXdpZHRoOjAuNTsiIHgxPSIzMC43NSIgeDI9IjE2MS43NSIgeTE9IjI0NzAuOTg0NCIgeTI9IjI0NzAuOTg0NCIvPjx0ZXh0IGZpbGw9IiMwMDAwMDAiIGZvbnQtZmFtaWx5PSJzYW5zLXNlcmlmIiBmb250LXNpemU9IjE0IiBsZW5ndGhBZGp1c3Q9InNwYWNpbmciIHRleHRMZW5ndGg9IjIxIiB4PSIzNS43NSIgeT0iMjQ4OC4yMTg4Ij4taWQ8L3RleHQ+PHRleHQgZmlsbD0iIzAwMDAwMCIgZm9udC1mYW1pbHk9InNhbnMtc2VyaWYiIGZvbnQtc2l6ZT0iMTQiIGxlbmd0aEFkanVzdD0ic3BhY2luZyIgdGV4dExlbmd0aD0iNTAiIHg9IjM1Ljc1IiB5PSIyNTAzLjIwMzEiPi1leGFtSWQ8L3RleHQ+PHRleHQgZmlsbD0iIzAwMDAwMCIgZm9udC1mYW1pbHk9InNhbnMtc2VyaWYiIGZvbnQtc2l6ZT0iMTQiIGxlbmd0aEFkanVzdD0ic3BhY2luZyIgdGV4dExlbmd0aD0iNzAiIHg9IjM1Ljc1IiB5PSIyNTE4LjE4NzUiPi1zdHVkZW50SWQ8L3RleHQ+PHRleHQgZmlsbD0iIzAwMDAwMCIgZm9udC1mYW1pbHk9InNhbnMtc2VyaWYiIGZvbnQtc2l6ZT0iMTQiIGxlbmd0aEFkanVzdD0ic3BhY2luZyIgdGV4dExlbmd0aD0iNDMiIHg9IjM1Ljc1IiB5PSIyNTMzLjE3MTkiPi1tYXJrczwvdGV4dD48dGV4dCBmaWxsPSIjMDAwMDAwIiBmb250LWZhbWlseT0ic2Fucy1zZXJpZiIgZm9udC1zaXplPSIxNCIgbGVuZ3RoQWRqdXN0PSJzcGFjaW5nIiB0ZXh0TGVuZ3RoPSI0MiIgeD0iMzUuNzUiIHk9IjI1NDguMTU2MyI+LWdyYWRlPC90ZXh0Pjx0ZXh0IGZpbGw9IiMwMDAwMDAiIGZvbnQtZmFtaWx5PSJzYW5zLXNlcmlmIiBmb250LXNpemU9IjE0IiBsZW5ndGhBZGp1c3Q9InNwYWNpbmciIHRleHRMZW5ndGg9IjU3IiB4PSIzNS43NSIgeT0iMjU2My4xNDA2Ij4tcmVtYXJrczwvdGV4dD48dGV4dCBmaWxsPSIjMDAwMDAwIiBmb250LWZhbWlseT0ic2Fucy1zZXJpZiIgZm9udC1zaXplPSIxNCIgbGVuZ3RoQWRqdXN0PSJzcGFjaW5nIiB0ZXh0TGVuZ3RoPSIzNSIgeD0iMzUuNzUiIHk9IjI1NzguMTI1Ij4tZGF0ZTwvdGV4dD48bGluZSBzdHlsZT0ic3Ryb2tlOiMwMDAwMDA7c3Ryb2tlLXdpZHRoOjAuNTsiIHgxPSIzMC43NSIgeDI9IjE2MS43NSIgeTE9IjI1ODMuODc1IiB5Mj0iMjU4My44NzUiLz48dGV4dCBmaWxsPSIjMDAwMDAwIiBmb250LWZhbWlseT0ic2Fucy1zZXJpZiIgZm9udC1zaXplPSIxNCIgbGVuZ3RoQWRqdXN0PSJzcGFjaW5nIiB0ZXh0TGVuZ3RoPSIxMjEiIHg9IjM1Ljc1IiB5PSIyNjAxLjEwOTQiPitjYWxjdWxhdGVHcmFkZSgpPC90ZXh0Pjx0ZXh0IGZpbGw9IiMwMDAwMDAiIGZvbnQtZmFtaWx5PSJzYW5zLXNlcmlmIiBmb250LXNpemU9IjE0IiBsZW5ndGhBZGp1c3Q9InNwYWNpbmciIHRleHRMZW5ndGg9IjEyMSIgeD0iMzUuNzUiIHk9IjI2MTYuMDkzOCI+K2dlbmVyYXRlUmVwb3J0KCk8L3RleHQ+PHRleHQgZmlsbD0iIzAwMDAwMCIgZm9udC1mYW1pbHk9InNhbnMtc2VyaWYiIGZvbnQtc2l6ZT0iMTQiIGxlbmd0aEFkanVzdD0ic3BhY2luZyIgdGV4dExlbmd0aD0iMTA3IiB4PSIzNS43NSIgeT0iMjYzMS4wNzgxIj4rdXBkYXRlUmVzdWx0KCk8L3RleHQ+PC9nPjwhLS1jbGFzcyBUaW1lVGFibGUtLT48ZyBpZD0iZWxlbV9UaW1lVGFibGUiPjxyZWN0IGNvZGVMaW5lPSIxNDMiIGZpbGw9IiNGRkZGRkYiIGhlaWdodD0iMTkwLjgyODEiIGlkPSJUaW1lVGFibGUiIHJ4PSIyLjUiIHJ5PSIyLjUiIHN0eWxlPSJzdHJva2U6IzAwMDAwMDtzdHJva2Utd2lkdGg6MC41OyIgd2lkdGg9IjE0NyIgeD0iNjA5Ljc1IiB5PSIyNDQ2Ii8+PHRleHQgZmlsbD0iIzAwMDAwMCIgZm9udC1mYW1pbHk9InNhbnMtc2VyaWYiIGZvbnQtc2l6ZT0iMTQiIGxlbmd0aEFkanVzdD0ic3BhY2luZyIgdGV4dExlbmd0aD0iNjQiIHg9IjY1MS4yNSIgeT0iMjQ2NC4yMzQ0Ij5UaW1lVGFibGU8L3RleHQ+PGxpbmUgc3R5bGU9InN0cm9rZTojMDAwMDAwO3N0cm9rZS13aWR0aDowLjU7IiB4MT0iNjEwLjc1IiB4Mj0iNzU1Ljc1IiB5MT0iMjQ3MC45ODQ0IiB5Mj0iMjQ3MC45ODQ0Ii8+PHRleHQgZmlsbD0iIzAwMDAwMCIgZm9udC1mYW1pbHk9InNhbnMtc2VyaWYiIGZvbnQtc2l6ZT0iMTQiIGxlbmd0aEFkanVzdD0ic3BhY2luZyIgdGV4dExlbmd0aD0iMjEiIHg9IjYxNS43NSIgeT0iMjQ4OC4yMTg4Ij4taWQ8L3RleHQ+PHRleHQgZmlsbD0iIzAwMDAwMCIgZm9udC1mYW1pbHk9InNhbnMtc2VyaWYiIGZvbnQtc2l6ZT0iMTQiIGxlbmd0aEFkanVzdD0ic3BhY2luZyIgdGV4dExlbmd0aD0iNDIiIHg9IjYxNS43NSIgeT0iMjUwMy4yMDMxIj4tZ3JhZGU8L3RleHQ+PHRleHQgZmlsbD0iIzAwMDAwMCIgZm9udC1mYW1pbHk9InNhbnMtc2VyaWYiIGZvbnQtc2l6ZT0iMTQiIGxlbmd0aEFkanVzdD0ic3BhY2luZyIgdGV4dExlbmd0aD0iNTYiIHg9IjYxNS43NSIgeT0iMjUxOC4xODc1Ij4tc2VjdGlvbjwvdGV4dD48dGV4dCBmaWxsPSIjMDAwMDAwIiBmb250LWZhbWlseT0ic2Fucy1zZXJpZiIgZm9udC1zaXplPSIxNCIgbGVuZ3RoQWRqdXN0PSJzcGFjaW5nIiB0ZXh0TGVuZ3RoPSI2MyIgeD0iNjE1Ljc1IiB5PSIyNTMzLjE3MTkiPi1zY2hlZHVsZTwvdGV4dD48dGV4dCBmaWxsPSIjMDAwMDAwIiBmb250LWZhbWlseT0ic2Fucy1zZXJpZiIgZm9udC1zaXplPSIxNCIgbGVuZ3RoQWRqdXN0PSJzcGFjaW5nIiB0ZXh0TGVuZ3RoPSI3MSIgeD0iNjE1Ljc1IiB5PSIyNTQ4LjE1NjMiPi12YWxpZEZyb208L3RleHQ+PHRleHQgZmlsbD0iIzAwMDAwMCIgZm9udC1mYW1pbHk9InNhbnMtc2VyaWYiIGZvbnQtc2l6ZT0iMTQiIGxlbmd0aEFkanVzdD0ic3BhY2luZyIgdGV4dExlbmd0aD0iNTYiIHg9IjYxNS43NSIgeT0iMjU2My4xNDA2Ij4tdmFsaWRUbzwvdGV4dD48bGluZSBzdHlsZT0ic3Ryb2tlOiMwMDAwMDA7c3Ryb2tlLXdpZHRoOjAuNTsiIHgxPSI2MTAuNzUiIHgyPSI3NTUuNzUiIHkxPSIyNTY4Ljg5MDYiIHkyPSIyNTY4Ljg5MDYiLz48dGV4dCBmaWxsPSIjMDAwMDAwIiBmb250LWZhbWlseT0ic2Fucy1zZXJpZiIgZm9udC1zaXplPSIxNCIgbGVuZ3RoQWRqdXN0PSJzcGFjaW5nIiB0ZXh0TGVuZ3RoPSIxMjEiIHg9IjYxNS43NSIgeT0iMjU4Ni4xMjUiPitjcmVhdGVTY2hlZHVsZSgpPC90ZXh0Pjx0ZXh0IGZpbGw9IiMwMDAwMDAiIGZvbnQtZmFtaWx5PSJzYW5zLXNlcmlmIiBmb250LXNpemU9IjE0IiBsZW5ndGhBZGp1c3Q9InNwYWNpbmciIHRleHRMZW5ndGg9IjEyMSIgeD0iNjE1Ljc1IiB5PSIyNjAxLjEwOTQiPit1cGRhdGVTY2hlZHVsZSgpPC90ZXh0Pjx0ZXh0IGZpbGw9IiMwMDAwMDAiIGZvbnQtZmFtaWx5PSJzYW5zLXNlcmlmIiBmb250LXNpemU9IjE0IiBsZW5ndGhBZGp1c3Q9InNwYWNpbmciIHRleHRMZW5ndGg9IjEyMSIgeD0iNjE1Ljc1IiB5PSIyNjE2LjA5MzgiPitkZWxldGVTY2hlZHVsZSgpPC90ZXh0Pjx0ZXh0IGZpbGw9IiMwMDAwMDAiIGZvbnQtZmFtaWx5PSJzYW5zLXNlcmlmIiBmb250LXNpemU9IjE0IiBsZW5ndGhBZGp1c3Q9InNwYWNpbmciIHRleHRMZW5ndGg9IjEzNSIgeD0iNjE1Ljc1IiB5PSIyNjMxLjA3ODEiPit2YWxpZGF0ZVNjaGVkdWxlKCk8L3RleHQ+PC9nPjwhLS1jbGFzcyBTZXNzaW9uLS0+PGcgaWQ9ImVsZW1fU2Vzc2lvbiI+PHJlY3QgY29kZUxpbmU9IjE1NyIgZmlsbD0iI0ZGRkZGRiIgaGVpZ2h0PSIxOTAuODI4MSIgaWQ9IlNlc3Npb24iIHJ4PSIyLjUiIHJ5PSIyLjUiIHN0eWxlPSJzdHJva2U6IzAwMDAwMDtzdHJva2Utd2lkdGg6MC41OyIgd2lkdGg9IjEyNiIgeD0iNTIxLjI1IiB5PSIxNjc4Ii8+PHRleHQgZmlsbD0iIzAwMDAwMCIgZm9udC1mYW1pbHk9InNhbnMtc2VyaWYiIGZvbnQtc2l6ZT0iMTQiIGxlbmd0aEFkanVzdD0ic3BhY2luZyIgdGV4dExlbmd0aD0iNDkiIHg9IjU1OS43NSIgeT0iMTY5Ni4yMzQ0Ij5TZXNzaW9uPC90ZXh0PjxsaW5lIHN0eWxlPSJzdHJva2U6IzAwMDAwMDtzdHJva2Utd2lkdGg6MC41OyIgeDE9IjUyMi4yNSIgeDI9IjY0Ni4yNSIgeTE9IjE3MDIuOTg0NCIgeTI9IjE3MDIuOTg0NCIvPjx0ZXh0IGZpbGw9IiMwMDAwMDAiIGZvbnQtZmFtaWx5PSJzYW5zLXNlcmlmIiBmb250LXNpemU9IjE0IiBsZW5ndGhBZGp1c3Q9InNwYWNpbmciIHRleHRMZW5ndGg9IjIxIiB4PSI1MjcuMjUiIHk9IjE3MjAuMjE4OCI+LWlkPC90ZXh0Pjx0ZXh0IGZpbGw9IiMwMDAwMDAiIGZvbnQtZmFtaWx5PSJzYW5zLXNlcmlmIiBmb250LXNpemU9IjE0IiBsZW5ndGhBZGp1c3Q9InNwYWNpbmciIHRleHRMZW5ndGg9IjU2IiB4PSI1MjcuMjUiIHk9IjE3MzUuMjAzMSI+LXN1YmplY3Q8L3RleHQ+PHRleHQgZmlsbD0iIzAwMDAwMCIgZm9udC1mYW1pbHk9InNhbnMtc2VyaWYiIGZvbnQtc2l6ZT0iMTQiIGxlbmd0aEFkanVzdD0ic3BhY2luZyIgdGV4dExlbmd0aD0iNzAiIHg9IjUyNy4yNSIgeT0iMTc1MC4xODc1Ij4tdGVhY2hlcklkPC90ZXh0Pjx0ZXh0IGZpbGw9IiMwMDAwMDAiIGZvbnQtZmFtaWx5PSJzYW5zLXNlcmlmIiBmb250LXNpemU9IjE0IiBsZW5ndGhBZGp1c3Q9InNwYWNpbmciIHRleHRMZW5ndGg9IjcxIiB4PSI1MjcuMjUiIHk9IjE3NjUuMTcxOSI+LXN0YXJ0VGltZTwvdGV4dD48dGV4dCBmaWxsPSIjMDAwMDAwIiBmb250LWZhbWlseT0ic2Fucy1zZXJpZiIgZm9udC1zaXplPSIxNCIgbGVuZ3RoQWRqdXN0PSJzcGFjaW5nIiB0ZXh0TGVuZ3RoPSI1NyIgeD0iNTI3LjI1IiB5PSIxNzgwLjE1NjMiPi1lbmRUaW1lPC90ZXh0Pjx0ZXh0IGZpbGw9IiMwMDAwMDAiIGZvbnQtZmFtaWx5PSJzYW5zLXNlcmlmIiBmb250LXNpemU9IjE0IiBsZW5ndGhBZGp1c3Q9InNwYWNpbmciIHRleHRMZW5ndGg9IjI4IiB4PSI1MjcuMjUiIHk9IjE3OTUuMTQwNiI+LWRheTwvdGV4dD48bGluZSBzdHlsZT0ic3Ryb2tlOiMwMDAwMDA7c3Ryb2tlLXdpZHRoOjAuNTsiIHgxPSI1MjIuMjUiIHgyPSI2NDYuMjUiIHkxPSIxODAwLjg5MDYiIHkyPSIxODAwLjg5MDYiLz48dGV4dCBmaWxsPSIjMDAwMDAwIiBmb250LWZhbWlseT0ic2Fucy1zZXJpZiIgZm9udC1zaXplPSIxNCIgbGVuZ3RoQWRqdXN0PSJzcGFjaW5nIiB0ZXh0TGVuZ3RoPSIxMTQiIHg9IjUyNy4yNSIgeT0iMTgxOC4xMjUiPitjcmVhdGVTZXNzaW9uKCk8L3RleHQ+PHRleHQgZmlsbD0iIzAwMDAwMCIgZm9udC1mYW1pbHk9InNhbnMtc2VyaWYiIGZvbnQtc2l6ZT0iMTQiIGxlbmd0aEFkanVzdD0ic3BhY2luZyIgdGV4dExlbmd0aD0iMTE0IiB4PSI1MjcuMjUiIHk9IjE4MzMuMTA5NCI+K3VwZGF0ZVNlc3Npb24oKTwvdGV4dD48dGV4dCBmaWxsPSIjMDAwMDAwIiBmb250LWZhbWlseT0ic2Fucy1zZXJpZiIgZm9udC1zaXplPSIxNCIgbGVuZ3RoQWRqdXN0PSJzcGFjaW5nIiB0ZXh0TGVuZ3RoPSIxMTQiIHg9IjUyNy4yNSIgeT0iMTg0OC4wOTM4Ij4rZGVsZXRlU2Vzc2lvbigpPC90ZXh0Pjx0ZXh0IGZpbGw9IiMwMDAwMDAiIGZvbnQtZmFtaWx5PSJzYW5zLXNlcmlmIiBmb250LXNpemU9IjE0IiBsZW5ndGhBZGp1c3Q9InNwYWNpbmciIHRleHRMZW5ndGg9IjEwOCIgeD0iNTI3LjI1IiB5PSIxODYzLjA3ODEiPit2YWxpZGF0ZVRpbWUoKTwvdGV4dD48L2c+PCEtLWNsYXNzIFJlcG9ydC0tPjxnIGlkPSJlbGVtX1JlcG9ydCI+PHJlY3QgY29kZUxpbmU9IjE3MSIgZmlsbD0iI0ZGRkZGRiIgaGVpZ2h0PSIxNzUuODQzOCIgaWQ9IlJlcG9ydCIgcng9IjIuNSIgcnk9IjIuNSIgc3R5bGU9InN0cm9rZTojMDAwMDAwO3N0cm9rZS13aWR0aDowLjU7IiB3aWR0aD0iMTMzIiB4PSI5NzEuNzUiIHk9IjExMTYiLz48dGV4dCBmaWxsPSIjMDAwMDAwIiBmb250LWZhbWlseT0ic2Fucy1zZXJpZiIgZm9udC1zaXplPSIxNCIgbGVuZ3RoQWRqdXN0PSJzcGFjaW5nIiB0ZXh0TGVuZ3RoPSI0MiIgeD0iMTAxNy4yNSIgeT0iMTEzNC4yMzQ0Ij5SZXBvcnQ8L3RleHQ+PGxpbmUgc3R5bGU9InN0cm9rZTojMDAwMDAwO3N0cm9rZS13aWR0aDowLjU7IiB4MT0iOTcyLjc1IiB4Mj0iMTEwMy43NSIgeTE9IjExNDAuOTg0NCIgeTI9IjExNDAuOTg0NCIvPjx0ZXh0IGZpbGw9IiMwMDAwMDAiIGZvbnQtZmFtaWx5PSJzYW5zLXNlcmlmIiBmb250LXNpemU9IjE0IiBsZW5ndGhBZGp1c3Q9InNwYWNpbmciIHRleHRMZW5ndGg9IjIxIiB4PSI5NzcuNzUiIHk9IjExNTguMjE4OCI+LWlkPC90ZXh0Pjx0ZXh0IGZpbGw9IiMwMDAwMDAiIGZvbnQtZmFtaWx5PSJzYW5zLXNlcmlmIiBmb250LXNpemU9IjE0IiBsZW5ndGhBZGp1c3Q9InNwYWNpbmciIHRleHRMZW5ndGg9IjM1IiB4PSI5NzcuNzUiIHk9IjExNzMuMjAzMSI+LXR5cGU8L3RleHQ+PHRleHQgZmlsbD0iIzAwMDAwMCIgZm9udC1mYW1pbHk9InNhbnMtc2VyaWYiIGZvbnQtc2l6ZT0iMTQiIGxlbmd0aEFkanVzdD0ic3BhY2luZyIgdGV4dExlbmd0aD0iMzUiIHg9Ijk3Ny43NSIgeT0iMTE4OC4xODc1Ij4tZGF0ZTwvdGV4dD48dGV4dCBmaWxsPSIjMDAwMDAwIiBmb250LWZhbWlseT0ic2Fucy1zZXJpZiIgZm9udC1zaXplPSIxNCIgbGVuZ3RoQWRqdXN0PSJzcGFjaW5nIiB0ZXh0TGVuZ3RoPSI4NCIgeD0iOTc3Ljc1IiB5PSIxMjAzLjE3MTkiPi1nZW5lcmF0ZWRCeTwvdGV4dD48dGV4dCBmaWxsPSIjMDAwMDAwIiBmb250LWZhbWlseT0ic2Fucy1zZXJpZiIgZm9udC1zaXplPSIxNCIgbGVuZ3RoQWRqdXN0PSJzcGFjaW5nIiB0ZXh0TGVuZ3RoPSI1NiIgeD0iOTc3Ljc1IiB5PSIxMjE4LjE1NjMiPi1jb250ZW50PC90ZXh0PjxsaW5lIHN0eWxlPSJzdHJva2U6IzAwMDAwMDtzdHJva2Utd2lkdGg6MC41OyIgeDE9Ijk3Mi43NSIgeDI9IjExMDMuNzUiIHkxPSIxMjIzLjkwNjMiIHkyPSIxMjIzLjkwNjMiLz48dGV4dCBmaWxsPSIjMDAwMDAwIiBmb250LWZhbWlseT0ic2Fucy1zZXJpZiIgZm9udC1zaXplPSIxNCIgbGVuZ3RoQWRqdXN0PSJzcGFjaW5nIiB0ZXh0TGVuZ3RoPSIxMjEiIHg9Ijk3Ny43NSIgeT0iMTI0MS4xNDA2Ij4rZ2VuZXJhdGVSZXBvcnQoKTwvdGV4dD48dGV4dCBmaWxsPSIjMDAwMDAwIiBmb250LWZhbWlseT0ic2Fucy1zZXJpZiIgZm9udC1zaXplPSIxNCIgbGVuZ3RoQWRqdXN0PSJzcGFjaW5nIiB0ZXh0TGVuZ3RoPSIxMDciIHg9Ijk3Ny43NSIgeT0iMTI1Ni4xMjUiPitleHBvcnRSZXBvcnQoKTwvdGV4dD48dGV4dCBmaWxsPSIjMDAwMDAwIiBmb250LWZhbWlseT0ic2Fucy1zZXJpZiIgZm9udC1zaXplPSIxNCIgbGVuZ3RoQWRqdXN0PSJzcGFjaW5nIiB0ZXh0TGVuZ3RoPSIxMDAiIHg9Ijk3Ny43NSIgeT0iMTI3MS4xMDk0Ij4rc2hhcmVSZXBvcnQoKTwvdGV4dD48dGV4dCBmaWxsPSIjMDAwMDAwIiBmb250LWZhbWlseT0ic2Fucy1zZXJpZiIgZm9udC1zaXplPSIxNCIgbGVuZ3RoQWRqdXN0PSJzcGFjaW5nIiB0ZXh0TGVuZ3RoPSIxMTQiIHg9Ijk3Ny43NSIgeT0iMTI4Ni4wOTM4Ij4rYXJjaGl2ZVJlcG9ydCgpPC90ZXh0PjwvZz48IS0tY2xhc3MgU3R1ZGVudFJlY29yZC0tPjxnIGlkPSJlbGVtX1N0dWRlbnRSZWNvcmQiPjxyZWN0IGNvZGVMaW5lPSIxODQiIGZpbGw9IiNGRkZGRkYiIGhlaWdodD0iMTkwLjgyODEiIGlkPSJTdHVkZW50UmVjb3JkIiByeD0iMi41IiByeT0iMi41IiBzdHlsZT0ic3Ryb2tlOiMwMDAwMDA7c3Ryb2tlLXdpZHRoOjAuNTsiIHdpZHRoPSIxNjgiIHg9IjQ4NC4yNSIgeT0iODY1Ii8+PHRleHQgZmlsbD0iIzAwMDAwMCIgZm9udC1mYW1pbHk9InNhbnMtc2VyaWYiIGZvbnQtc2l6ZT0iMTQiIGxlbmd0aEFkanVzdD0ic3BhY2luZyIgdGV4dExlbmd0aD0iOTEiIHg9IjUyMi43NSIgeT0iODgzLjIzNDQiPlN0dWRlbnRSZWNvcmQ8L3RleHQ+PGxpbmUgc3R5bGU9InN0cm9rZTojMDAwMDAwO3N0cm9rZS13aWR0aDowLjU7IiB4MT0iNDg1LjI1IiB4Mj0iNjUxLjI1IiB5MT0iODg5Ljk4NDQiIHkyPSI4ODkuOTg0NCIvPjx0ZXh0IGZpbGw9IiMwMDAwMDAiIGZvbnQtZmFtaWx5PSJzYW5zLXNlcmlmIiBmb250LXNpemU9IjE0IiBsZW5ndGhBZGp1c3Q9InNwYWNpbmciIHRleHRMZW5ndGg9IjcwIiB4PSI0OTAuMjUiIHk9IjkwNy4yMTg4Ij4tc3R1ZGVudElkPC90ZXh0Pjx0ZXh0IGZpbGw9IiMwMDAwMDAiIGZvbnQtZmFtaWx5PSJzYW5zLXNlcmlmIiBmb250LXNpemU9IjE0IiBsZW5ndGhBZGp1c3Q9InNwYWNpbmciIHRleHRMZW5ndGg9IjkxIiB4PSI0OTAuMjUiIHk9IjkyMi4yMDMxIj4tY3VycmVudEdyYWRlPC90ZXh0Pjx0ZXh0IGZpbGw9IiMwMDAwMDAiIGZvbnQtZmFtaWx5PSJzYW5zLXNlcmlmIiBmb250LXNpemU9IjE0IiBsZW5ndGhBZGp1c3Q9InNwYWNpbmciIHRleHRMZW5ndGg9IjkyIiB4PSI0OTAuMjUiIHk9IjkzNy4xODc1Ij4tYWNhZGVtaWNZZWFyPC90ZXh0Pjx0ZXh0IGZpbGw9IiMwMDAwMDAiIGZvbnQtZmFtaWx5PSJzYW5zLXNlcmlmIiBmb250LXNpemU9IjE0IiBsZW5ndGhBZGp1c3Q9InNwYWNpbmciIHRleHRMZW5ndGg9IjYzIiB4PSI0OTAuMjUiIHk9Ijk1Mi4xNzE5Ij4tc3ViamVjdHM8L3RleHQ+PHRleHQgZmlsbD0iIzAwMDAwMCIgZm9udC1mYW1pbHk9InNhbnMtc2VyaWYiIGZvbnQtc2l6ZT0iMTQiIGxlbmd0aEFkanVzdD0ic3BhY2luZyIgdGV4dExlbmd0aD0iNzciIHg9IjQ5MC4yNSIgeT0iOTY3LjE1NjMiPi1hdHRlbmRhbmNlPC90ZXh0Pjx0ZXh0IGZpbGw9IiMwMDAwMDAiIGZvbnQtZmFtaWx5PSJzYW5zLXNlcmlmIiBmb250LXNpemU9IjE0IiBsZW5ndGhBZGp1c3Q9InNwYWNpbmciIHRleHRMZW5ndGg9IjkyIiB4PSI0OTAuMjUiIHk9Ijk4Mi4xNDA2Ij4tYWNoaWV2ZW1lbnRzPC90ZXh0PjxsaW5lIHN0eWxlPSJzdHJva2U6IzAwMDAwMDtzdHJva2Utd2lkdGg6MC41OyIgeDE9IjQ4NS4yNSIgeDI9IjY1MS4yNSIgeTE9Ijk4Ny44OTA2IiB5Mj0iOTg3Ljg5MDYiLz48dGV4dCBmaWxsPSIjMDAwMDAwIiBmb250LWZhbWlseT0ic2Fucy1zZXJpZiIgZm9udC1zaXplPSIxNCIgbGVuZ3RoQWRqdXN0PSJzcGFjaW5nIiB0ZXh0TGVuZ3RoPSIxMDciIHg9IjQ5MC4yNSIgeT0iMTAwNS4xMjUiPit1cGRhdGVSZWNvcmQoKTwvdGV4dD48dGV4dCBmaWxsPSIjMDAwMDAwIiBmb250LWZhbWlseT0ic2Fucy1zZXJpZiIgZm9udC1zaXplPSIxNCIgbGVuZ3RoQWRqdXN0PSJzcGFjaW5nIiB0ZXh0TGVuZ3RoPSIxNTYiIHg9IjQ5MC4yNSIgeT0iMTAyMC4xMDk0Ij4rY2FsY3VsYXRlQXR0ZW5kYW5jZSgpPC90ZXh0Pjx0ZXh0IGZpbGw9IiMwMDAwMDAiIGZvbnQtZmFtaWx5PSJzYW5zLXNlcmlmIiBmb250LXNpemU9IjE0IiBsZW5ndGhBZGp1c3Q9InNwYWNpbmciIHRleHRMZW5ndGg9IjEyMiIgeD0iNDkwLjI1IiB5PSIxMDM1LjA5MzgiPithZGRBY2hpZXZlbWVudCgpPC90ZXh0Pjx0ZXh0IGZpbGw9IiMwMDAwMDAiIGZvbnQtZmFtaWx5PSJzYW5zLXNlcmlmIiBmb250LXNpemU9IjE0IiBsZW5ndGhBZGp1c3Q9InNwYWNpbmciIHRleHRMZW5ndGg9IjE0OSIgeD0iNDkwLjI1IiB5PSIxMDUwLjA3ODEiPitnZW5lcmF0ZVRyYW5zY3JpcHQoKTwvdGV4dD48L2c+PCEtLWNsYXNzIExvZy0tPjxnIGlkPSJlbGVtX0xvZyI+PHJlY3QgY29kZUxpbmU9IjE5OCIgZmlsbD0iI0ZGRkZGRiIgaGVpZ2h0PSIyNjUuNzUiIGlkPSJMb2ciIHJ4PSIyLjUiIHJ5PSIyLjUiIHN0eWxlPSJzdHJva2U6IzAwMDAwMDtzdHJva2Utd2lkdGg6MC41OyIgd2lkdGg9IjE2OCIgeD0iNjE2LjI1IiB5PSIxMzUyIi8+PHRleHQgZmlsbD0iIzAwMDAwMCIgZm9udC1mYW1pbHk9InNhbnMtc2VyaWYiIGZvbnQtc2l6ZT0iMTQiIGxlbmd0aEFkanVzdD0ic3BhY2luZyIgdGV4dExlbmd0aD0iMjEiIHg9IjY4OS43NSIgeT0iMTM3MC4yMzQ0Ij5Mb2c8L3RleHQ+PGxpbmUgc3R5bGU9InN0cm9rZTojMDAwMDAwO3N0cm9rZS13aWR0aDowLjU7IiB4MT0iNjE3LjI1IiB4Mj0iNzgzLjI1IiB5MT0iMTM3Ni45ODQ0IiB5Mj0iMTM3Ni45ODQ0Ii8+PHRleHQgZmlsbD0iIzAwMDAwMCIgZm9udC1mYW1pbHk9InNhbnMtc2VyaWYiIGZvbnQtc2l6ZT0iMTQiIGxlbmd0aEFkanVzdD0ic3BhY2luZyIgdGV4dExlbmd0aD0iMjEiIHg9IjYyMi4yNSIgeT0iMTM5NC4yMTg4Ij4taWQ8L3RleHQ+PHRleHQgZmlsbD0iIzAwMDAwMCIgZm9udC1mYW1pbHk9InNhbnMtc2VyaWYiIGZvbnQtc2l6ZT0iMTQiIGxlbmd0aEFkanVzdD0ic3BhY2luZyIgdGV4dExlbmd0aD0iMzUiIHg9IjYyMi4yNSIgeT0iMTQwOS4yMDMxIj4tdHlwZTwvdGV4dD48dGV4dCBmaWxsPSIjMDAwMDAwIiBmb250LWZhbWlseT0ic2Fucy1zZXJpZiIgZm9udC1zaXplPSIxNCIgbGVuZ3RoQWRqdXN0PSJzcGFjaW5nIiB0ZXh0TGVuZ3RoPSI0OSIgeD0iNjIyLjI1IiB5PSIxNDI0LjE4NzUiPi11c2VySWQ8L3RleHQ+PHRleHQgZmlsbD0iIzAwMDAwMCIgZm9udC1mYW1pbHk9InNhbnMtc2VyaWYiIGZvbnQtc2l6ZT0iMTQiIGxlbmd0aEFkanVzdD0ic3BhY2luZyIgdGV4dExlbmd0aD0iNjMiIHg9IjYyMi4yNSIgeT0iMTQzOS4xNzE5Ij4tdGFyZ2V0SWQ8L3RleHQ+PHRleHQgZmlsbD0iIzAwMDAwMCIgZm9udC1mYW1pbHk9InNhbnMtc2VyaWYiIGZvbnQtc2l6ZT0iMTQiIGxlbmd0aEFkanVzdD0ic3BhY2luZyIgdGV4dExlbmd0aD0iNDkiIHg9IjYyMi4yNSIgeT0iMTQ1NC4xNTYzIj4tYWN0aW9uPC90ZXh0Pjx0ZXh0IGZpbGw9IiMwMDAwMDAiIGZvbnQtZmFtaWx5PSJzYW5zLXNlcmlmIiBmb250LXNpemU9IjE0IiBsZW5ndGhBZGp1c3Q9InNwYWNpbmciIHRleHRMZW5ndGg9IjcyIiB4PSI2MjIuMjUiIHk9IjE0NjkuMTQwNiI+LXRpbWVzdGFtcDwvdGV4dD48dGV4dCBmaWxsPSIjMDAwMDAwIiBmb250LWZhbWlseT0ic2Fucy1zZXJpZiIgZm9udC1zaXplPSIxNCIgbGVuZ3RoQWRqdXN0PSJzcGFjaW5nIiB0ZXh0TGVuZ3RoPSI1NiIgeD0iNjIyLjI1IiB5PSIxNDg0LjEyNSI+LWRldGFpbHM8L3RleHQ+PHRleHQgZmlsbD0iIzAwMDAwMCIgZm9udC1mYW1pbHk9InNhbnMtc2VyaWYiIGZvbnQtc2l6ZT0iMTQiIGxlbmd0aEFkanVzdD0ic3BhY2luZyIgdGV4dExlbmd0aD0iNDkiIHg9IjYyMi4yNSIgeT0iMTQ5OS4xMDk0Ij4tc3RhdHVzPC90ZXh0Pjx0ZXh0IGZpbGw9IiMwMDAwMDAiIGZvbnQtZmFtaWx5PSJzYW5zLXNlcmlmIiBmb250LXNpemU9IjE0IiBsZW5ndGhBZGp1c3Q9InNwYWNpbmciIHRleHRMZW5ndGg9IjcwIiB4PSI2MjIuMjUiIHk9IjE1MTQuMDkzOCI+LWlwQWRkcmVzczwvdGV4dD48bGluZSBzdHlsZT0ic3Ryb2tlOiMwMDAwMDA7c3Ryb2tlLXdpZHRoOjAuNTsiIHgxPSI2MTcuMjUiIHgyPSI3ODMuMjUiIHkxPSIxNTE5Ljg0MzgiIHkyPSIxNTE5Ljg0MzgiLz48dGV4dCBmaWxsPSIjMDAwMDAwIiBmb250LWZhbWlseT0ic2Fucy1zZXJpZiIgZm9udC1zaXplPSIxNCIgbGVuZ3RoQWRqdXN0PSJzcGFjaW5nIiB0ZXh0TGVuZ3RoPSI4NiIgeD0iNjIyLjI1IiB5PSIxNTM3LjA3ODEiPitjcmVhdGVMb2coKTwvdGV4dD48dGV4dCBmaWxsPSIjMDAwMDAwIiBmb250LWZhbWlseT0ic2Fucy1zZXJpZiIgZm9udC1zaXplPSIxNCIgbGVuZ3RoQWRqdXN0PSJzcGFjaW5nIiB0ZXh0TGVuZ3RoPSI4NiIgeD0iNjIyLjI1IiB5PSIxNTUyLjA2MjUiPit1cGRhdGVMb2coKTwvdGV4dD48dGV4dCBmaWxsPSIjMDAwMDAwIiBmb250LWZhbWlseT0ic2Fucy1zZXJpZiIgZm9udC1zaXplPSIxNCIgbGVuZ3RoQWRqdXN0PSJzcGFjaW5nIiB0ZXh0TGVuZ3RoPSIxMTQiIHg9IjYyMi4yNSIgeT0iMTU2Ny4wNDY5Ij4rZ2V0TG9nSGlzdG9yeSgpPC90ZXh0Pjx0ZXh0IGZpbGw9IiMwMDAwMDAiIGZvbnQtZmFtaWx5PSJzYW5zLXNlcmlmIiBmb250LXNpemU9IjE0IiBsZW5ndGhBZGp1c3Q9InNwYWNpbmciIHRleHRMZW5ndGg9IjEyMSIgeD0iNjIyLjI1IiB5PSIxNTgyLjAzMTMiPitnZW5lcmF0ZVJlcG9ydCgpPC90ZXh0Pjx0ZXh0IGZpbGw9IiMwMDAwMDAiIGZvbnQtZmFtaWx5PSJzYW5zLXNlcmlmIiBmb250LXNpemU9IjE0IiBsZW5ndGhBZGp1c3Q9InNwYWNpbmciIHRleHRMZW5ndGg9IjE1NiIgeD0iNjIyLjI1IiB5PSIxNTk3LjAxNTYiPitjYWxjdWxhdGVTdGF0aXN0aWNzKCk8L3RleHQ+PHRleHQgZmlsbD0iIzAwMDAwMCIgZm9udC1mYW1pbHk9InNhbnMtc2VyaWYiIGZvbnQtc2l6ZT0iMTQiIGxlbmd0aEFkanVzdD0ic3BhY2luZyIgdGV4dExlbmd0aD0iMTA3IiB4PSI2MjIuMjUiIHk9IjE2MTIiPitjbGVhbk9sZExvZ3MoKTwvdGV4dD48L2c+PCEtLXJldmVyc2UgbGluayBVc2VyIHRvIFN0dWRlbnQtLT48ZyBpZD0ibGlua19Vc2VyX1N0dWRlbnQiPjxwYXRoIGNvZGVMaW5lPSIyMTgiIGQ9Ik05MzguMDYsMzIxLjM0IEM5MzguMDYsNDc2LjU5IDkzOC4wNiw2ODAgOTM4LjA2LDY4MCBDOTM4LjA2LDY4MCA4ODEuNDksNjgwIDgyOS4wMSw2ODAgIiBmaWxsPSJub25lIiBpZD0iVXNlci1iYWNrdG8tU3R1ZGVudCIgc3R5bGU9InN0cm9rZTojMDAwMDAwO3N0cm9rZS13aWR0aDoxLjA7Ii8+PHBvbHlnb24gZmlsbD0ibm9uZSIgcG9pbnRzPSI5MzguMDYsMzAzLjM0LDkzMi4wNiwzMjEuMzQsOTQ0LjA2LDMyMS4zNCw5MzguMDYsMzAzLjM0IiBzdHlsZT0ic3Ryb2tlOiMwMDAwMDA7c3Ryb2tlLXdpZHRoOjEuMDsiLz48L2c+PCEtLXJldmVyc2UgbGluayBVc2VyIHRvIFRlYWNoZXItLT48ZyBpZD0ibGlua19Vc2VyX1RlYWNoZXIiPjxwYXRoIGNvZGVMaW5lPSIyMTkiIGQ9Ik05NTIuNSwzMjEuMjYgQzk1Mi41LDY5MC4yNCA5NTIuNSwxNjIzLjk5IDk1Mi41LDE5MjguOTYgIiBmaWxsPSJub25lIiBpZD0iVXNlci1iYWNrdG8tVGVhY2hlciIgc3R5bGU9InN0cm9rZTojMDAwMDAwO3N0cm9rZS13aWR0aDoxLjA7Ii8+PHBvbHlnb24gZmlsbD0ibm9uZSIgcG9pbnRzPSI5NTIuNSwzMDMuMjYsOTQ2LjUsMzIxLjI2LDk1OC41LDMyMS4yNiw5NTIuNSwzMDMuMjYiIHN0eWxlPSJzdHJva2U6IzAwMDAwMDtzdHJva2Utd2lkdGg6MS4wOyIvPjwvZz48IS0tcmV2ZXJzZSBsaW5rIFVzZXIgdG8gU2VjdGlvbkhlYWQtLT48ZyBpZD0ibGlua19Vc2VyX1NlY3Rpb25IZWFkIj48cGF0aCBjb2RlTGluZT0iMjIwIiBkPSJNMTA3MS4yNSwzMjEuMjEgQzEwNzEuMjUsNDk0LjMzIDEwNzEuMjUsNzU1Ljc3IDEwNzEuMjUsODg3LjQzICIgZmlsbD0ibm9uZSIgaWQ9IlVzZXItYmFja3RvLVNlY3Rpb25IZWFkIiBzdHlsZT0ic3Ryb2tlOiMwMDAwMDA7c3Ryb2tlLXdpZHRoOjEuMDsiLz48cG9seWdvbiBmaWxsPSJub25lIiBwb2ludHM9IjEwNzEuMjUsMzAzLjIxLDEwNjUuMjUsMzIxLjIxLDEwNzcuMjUsMzIxLjIxLDEwNzEuMjUsMzAzLjIxIiBzdHlsZT0ic3Ryb2tlOiMwMDAwMDA7c3Ryb2tlLXdpZHRoOjEuMDsiLz48L2c+PCEtLXJldmVyc2UgbGluayBVc2VyIHRvIFByaW5jaXBhbC0tPjxnIGlkPSJsaW5rX1VzZXJfUHJpbmNpcGFsIj48cGF0aCBjb2RlTGluZT0iMjIxIiBkPSJNMTA3OS4yNSwzMjEuMTYgQzEwNzkuMjUsMzY4LjA5IDEwNzkuMjUsMzkwIDEwNzkuMjUsMzkwIEMxMDc5LjI1LDM5MCAxMDk5LjUzLDM5MCAxMTI0LjQ5LDM5MCAiIGZpbGw9Im5vbmUiIGlkPSJVc2VyLWJhY2t0by1QcmluY2lwYWwiIHN0eWxlPSJzdHJva2U6IzAwMDAwMDtzdHJva2Utd2lkdGg6MS4wOyIvPjxwb2x5Z29uIGZpbGw9Im5vbmUiIHBvaW50cz0iMTA3OS4yNSwzMDMuMTYsMTA3My4yNSwzMjEuMTYsMTA4NS4yNSwzMjEuMTYsMTA3OS4yNSwzMDMuMTYiIHN0eWxlPSJzdHJva2U6IzAwMDAwMDtzdHJva2Utd2lkdGg6MS4wOyIvPjwvZz48IS0tcmV2ZXJzZSBsaW5rIFVzZXIgdG8gQWRtaW4tLT48ZyBpZD0ibGlua19Vc2VyX0FkbWluIj48cGF0aCBjb2RlTGluZT0iMjIyIiBkPSJNOTQyLjg4LDMyMS4yMiBDOTQyLjg4LDYwNS4xOCA5NDIuODgsMTE4MCA5NDIuODgsMTE4MCBDOTQyLjg4LDExODAgNTUwLjYxLDExODAgMzY3Ljg5LDExODAgIiBmaWxsPSJub25lIiBpZD0iVXNlci1iYWNrdG8tQWRtaW4iIHN0eWxlPSJzdHJva2U6IzAwMDAwMDtzdHJva2Utd2lkdGg6MS4wOyIvPjxwb2x5Z29uIGZpbGw9Im5vbmUiIHBvaW50cz0iOTQyLjg4LDMwMy4yMiw5MzYuODgsMzIxLjIyLDk0OC44OCwzMjEuMjIsOTQyLjg4LDMwMy4yMiIgc3R5bGU9InN0cm9rZTojMDAwMDAwO3N0cm9rZS13aWR0aDoxLjA7Ii8+PC9nPjwhLS1saW5rIFN0dWRlbnQgdG8gQXNzZXNzbWVudC0tPjxnIGlkPSJsaW5rX1N0dWRlbnRfQXNzZXNzbWVudCI+PHBhdGggY29kZUxpbmU9IjIyNSIgZD0iTTgwMS44MSw4MDUuMzIgQzgwMS44MSwxMTEyLjczIDgwMS44MSwxODk3LjQxIDgwMS44MSwyMTc5Ljc5ICIgZmlsbD0ibm9uZSIgaWQ9IlN0dWRlbnQtQXNzZXNzbWVudCIgc3R5bGU9InN0cm9rZTojMDAwMDAwO3N0cm9rZS13aWR0aDoxLjA7Ii8+PHRleHQgZmlsbD0iIzAwMDAwMCIgZm9udC1mYW1pbHk9InNhbnMtc2VyaWYiIGZvbnQtc2l6ZT0iMTMiIGxlbmd0aEFkanVzdD0ic3BhY2luZyIgdGV4dExlbmd0aD0iNDYiIHg9IjgwMi44MSIgeT0iMTQ5MC44NDkxIj5zdWJtaXRzPC90ZXh0Pjx0ZXh0IGZpbGw9IiMwMDAwMDAiIGZvbnQtZmFtaWx5PSJzYW5zLXNlcmlmIiBmb250LXNpemU9IjEzIiBsZW5ndGhBZGp1c3Q9InNwYWNpbmciIHRleHRMZW5ndGg9IjYiIHg9Ijc5OC45NTc4IiB5PSI4MjQuODc2NyI+KjwvdGV4dD48dGV4dCBmaWxsPSIjMDAwMDAwIiBmb250LWZhbWlseT0ic2Fucy1zZXJpZiIgZm9udC1zaXplPSIxMyIgbGVuZ3RoQWRqdXN0PSJzcGFjaW5nIiB0ZXh0TGVuZ3RoPSI2IiB4PSI3OTguMDA2MiIgeT0iMjE3MC4zODA0Ij4qPC90ZXh0PjwvZz48IS0tbGluayBTdHVkZW50IHRvIEV4YW0tLT48ZyBpZD0ibGlua19TdHVkZW50X0V4YW0iPjxwYXRoIGNvZGVMaW5lPSIyMjYiIGQ9Ik03MDUuOTUsODA1LjAyIEM3MDUuOTUsOTgxLjA2IDcwNS45NSwxMjgwIDcwNS45NSwxMjgwIEM3MDUuOTUsMTI4MCAyMzMuNzUsMTI4MCAyMzMuNzUsMTI4MCBDMjMzLjc1LDEyODAgMjMzLjc1LDE5MjMuOTYgMjMzLjc1LDIxNzkuOTEgIiBmaWxsPSJub25lIiBpZD0iU3R1ZGVudC1FeGFtIiBzdHlsZT0ic3Ryb2tlOiMwMDAwMDA7c3Ryb2tlLXdpZHRoOjEuMDsiLz48dGV4dCBmaWxsPSIjMDAwMDAwIiBmb250LWZhbWlseT0ic2Fucy1zZXJpZiIgZm9udC1zaXplPSIxMyIgbGVuZ3RoQWRqdXN0PSJzcGFjaW5nIiB0ZXh0TGVuZ3RoPSIzNCIgeD0iMjIyLjM5IiB5PSIxMjkzLjI4OTEiPnRha2VzPC90ZXh0Pjx0ZXh0IGZpbGw9IiMwMDAwMDAiIGZvbnQtZmFtaWx5PSJzYW5zLXNlcmlmIiBmb250LXNpemU9IjEzIiBsZW5ndGhBZGp1c3Q9InNwYWNpbmciIHRleHRMZW5ndGg9IjYiIHg9IjY5Ny43MzU4IiB5PSI4MjQuOTc0NyI+KjwvdGV4dD48dGV4dCBmaWxsPSIjMDAwMDAwIiBmb250LWZhbWlseT0ic2Fucy1zZXJpZiIgZm9udC1zaXplPSIxMyIgbGVuZ3RoQWRqdXN0PSJzcGFjaW5nIiB0ZXh0TGVuZ3RoPSI2IiB4PSIyMjUuNTU4NiIgeT0iMjE3MC41MSI+KjwvdGV4dD48L2c+PCEtLWxpbmsgU3R1ZGVudCB0byBFeGFtUmVzdWx0LS0+PGcgaWQ9ImxpbmtfU3R1ZGVudF9FeGFtUmVzdWx0Ij48cGF0aCBjb2RlTGluZT0iMjI3IiBkPSJNNjUzLjYyLDY4MCBDNDcwLjI3LDY4MCA2Myw2ODAgNjMsNjgwIEM2Myw2ODAgNjMsMjA2NS43MiA2MywyNDQ1Ljk4ICIgZmlsbD0ibm9uZSIgaWQ9IlN0dWRlbnQtRXhhbVJlc3VsdCIgc3R5bGU9InN0cm9rZTojMDAwMDAwO3N0cm9rZS13aWR0aDoxLjA7Ii8+PHRleHQgZmlsbD0iIzAwMDAwMCIgZm9udC1mYW1pbHk9InNhbnMtc2VyaWYiIGZvbnQtc2l6ZT0iMTMiIGxlbmd0aEFkanVzdD0ic3BhY2luZyIgdGV4dExlbmd0aD0iNTUiIHg9IjciIHk9IjEyNjUuOTY5MSI+cmVjZWl2ZXM8L3RleHQ+PHRleHQgZmlsbD0iIzAwMDAwMCIgZm9udC1mYW1pbHk9InNhbnMtc2VyaWYiIGZvbnQtc2l6ZT0iMTMiIGxlbmd0aEFkanVzdD0ic3BhY2luZyIgdGV4dExlbmd0aD0iNyIgeD0iNjM4Ljc4ODUiIHk9IjY3OC44MjI4Ij4xPC90ZXh0Pjx0ZXh0IGZpbGw9IiMwMDAwMDAiIGZvbnQtZmFtaWx5PSJzYW5zLXNlcmlmIiBmb250LXNpemU9IjEzIiBsZW5ndGhBZGp1c3Q9InNwYWNpbmciIHRleHRMZW5ndGg9IjYiIHg9IjUzLjc3MTUiIHk9IjI0MzYuMjMxMyI+KjwvdGV4dD48L2c+PCEtLWxpbmsgU3R1ZGVudCB0byBTdHVkZW50UmVjb3JkLS0+PGcgaWQ9ImxpbmtfU3R1ZGVudF9TdHVkZW50UmVjb3JkIj48cGF0aCBjb2RlTGluZT0iMjI4IiBkPSJNNjc5Ljg1LDgwNS4xNCBDNjc5Ljg1LDg0NC4wOSA2NzkuODUsODc3IDY3OS44NSw4NzcgQzY3OS44NSw4NzcgNjY4LjEyLDg3NyA2NTIuMjYsODc3ICIgZmlsbD0ibm9uZSIgaWQ9IlN0dWRlbnQtU3R1ZGVudFJlY29yZCIgc3R5bGU9InN0cm9rZTojMDAwMDAwO3N0cm9rZS13aWR0aDoxLjA7Ii8+PHRleHQgZmlsbD0iIzAwMDAwMCIgZm9udC1mYW1pbHk9InNhbnMtc2VyaWYiIGZvbnQtc2l6ZT0iMTMiIGxlbmd0aEFkanVzdD0ic3BhY2luZyIgdGV4dExlbmd0aD0iMjciIHg9IjY1MS44NSIgeT0iODUzLjE0OTEiPm93bnM8L3RleHQ+PHRleHQgZmlsbD0iIzAwMDAwMCIgZm9udC1mYW1pbHk9InNhbnMtc2VyaWYiIGZvbnQtc2l6ZT0iMTMiIGxlbmd0aEFkanVzdD0ic3BhY2luZyIgdGV4dExlbmd0aD0iNyIgeD0iNjY5LjA5OCIgeT0iODI1LjEwMTYiPjE8L3RleHQ+PHRleHQgZmlsbD0iIzAwMDAwMCIgZm9udC1mYW1pbHk9InNhbnMtc2VyaWYiIGZvbnQtc2l6ZT0iMTMiIGxlbmd0aEFkanVzdD0ic3BhY2luZyIgdGV4dExlbmd0aD0iNyIgeD0iNjYwLjMyNzMiIHk9Ijg2OC4wNDIyIj4xPC90ZXh0PjwvZz48IS0tbGluayBTdHVkZW50IHRvIFRpbWVUYWJsZS0tPjxnIGlkPSJsaW5rX1N0dWRlbnRfVGltZVRhYmxlIj48cGF0aCBjb2RlTGluZT0iMjI5IiBkPSJNNzg4LjY0LDgwNS4xMiBDNzg4LjY0LDEwNjcuMTcgNzg4LjY0LDE2NDggNzg4LjY0LDE2NDggQzc4OC42NCwxNjQ4IDY2My45MiwxNjQ4IDY2My45MiwxNjQ4IEM2NjMuOTIsMTY0OCA2NjMuOTIsMjIxNS4zOCA2NjMuOTIsMjQ0NS44OCAiIGZpbGw9Im5vbmUiIGlkPSJTdHVkZW50LVRpbWVUYWJsZSIgc3R5bGU9InN0cm9rZTojMDAwMDAwO3N0cm9rZS13aWR0aDoxLjA7Ii8+PHRleHQgZmlsbD0iIzAwMDAwMCIgZm9udC1mYW1pbHk9InNhbnMtc2VyaWYiIGZvbnQtc2l6ZT0iMTMiIGxlbmd0aEFkanVzdD0ic3BhY2luZyIgdGV4dExlbmd0aD0iNDUiIHg9IjcwMi43OCIgeT0iMTY0Ni4yODkxIj5mb2xsb3dzPC90ZXh0Pjx0ZXh0IGZpbGw9IiMwMDAwMDAiIGZvbnQtZmFtaWx5PSJzYW5zLXNlcmlmIiBmb250LXNpemU9IjEzIiBsZW5ndGhBZGp1c3Q9InNwYWNpbmciIHRleHRMZW5ndGg9IjYiIHg9Ijc4NS4yMDYzIiB5PSI4MjUuMDgwNCI+KjwvdGV4dD48dGV4dCBmaWxsPSIjMDAwMDAwIiBmb250LWZhbWlseT0ic2Fucy1zZXJpZiIgZm9udC1zaXplPSIxMyIgbGVuZ3RoQWRqdXN0PSJzcGFjaW5nIiB0ZXh0TGVuZ3RoPSI3IiB4PSI2NTQuOTU4IiB5PSIyNDM2LjQzOTgiPjE8L3RleHQ+PC9nPjwhLS1saW5rIFN0dWRlbnQgdG8gU2VjdGlvbkhlYWQtLT48ZyBpZD0ibGlua19TdHVkZW50X1NlY3Rpb25IZWFkIj48cGF0aCBjb2RlTGluZT0iMjMwIiBkPSJNODE5LjM2LDgwNS4yIEM4MTkuMzYsODYyLjE3IDgxOS4zNiw5MTcgODE5LjM2LDkxNyBDODE5LjM2LDkxNyA5NjQuMDIsOTE3IDEwNjMuMTgsOTE3ICIgZmlsbD0ibm9uZSIgaWQ9IlN0dWRlbnQtU2VjdGlvbkhlYWQiIHN0eWxlPSJzdHJva2U6IzAwMDAwMDtzdHJva2Utd2lkdGg6MS4wOyIvPjx0ZXh0IGZpbGw9IiMwMDAwMDAiIGZvbnQtZmFtaWx5PSJzYW5zLXNlcmlmIiBmb250LXNpemU9IjEzIiBsZW5ndGhBZGp1c3Q9InNwYWNpbmciIHRleHRMZW5ndGg9IjY4IiB4PSI4MTYuMzciIHk9IjkxNS4yODkxIj5yZXBvcnRzIHRvPC90ZXh0Pjx0ZXh0IGZpbGw9IiMwMDAwMDAiIGZvbnQtZmFtaWx5PSJzYW5zLXNlcmlmIiBmb250LXNpemU9IjEzIiBsZW5ndGhBZGp1c3Q9InNwYWNpbmciIHRleHRMZW5ndGg9IjYiIHg9IjgyNC4wNDkyIiB5PSI4MjUuMTY1MSI+KjwvdGV4dD48dGV4dCBmaWxsPSIjMDAwMDAwIiBmb250LWZhbWlseT0ic2Fucy1zZXJpZiIgZm9udC1zaXplPSIxMyIgbGVuZ3RoQWRqdXN0PSJzcGFjaW5nIiB0ZXh0TGVuZ3RoPSI3IiB4PSIxMDQ4LjM0ODQiIHk9IjkxMi4xOTE1Ij4xPC90ZXh0PjwvZz48IS0tbGluayBTZWN0aW9uSGVhZCB0byBTdHVkZW50LS0+PGcgaWQ9ImxpbmtfU2VjdGlvbkhlYWRfU3R1ZGVudCI+PHBhdGggY29kZUxpbmU9IjI0NCIgZD0iTTEwNjIuODgsOTQ2IEM5NjIuMzksOTQ2IDgxNC45Nyw5NDYgODE0Ljk3LDk0NiBDODE0Ljk3LDk0NiA4MTQuOTcsODc0LjM0IDgxNC45Nyw4MDUuMzQgIiBmaWxsPSJub25lIiBpZD0iU2VjdGlvbkhlYWQtU3R1ZGVudCIgc3R5bGU9InN0cm9rZTojMDAwMDAwO3N0cm9rZS13aWR0aDoxLjA7Ii8+PHRleHQgZmlsbD0iIzAwMDAwMCIgZm9udC1mYW1pbHk9InNhbnMtc2VyaWYiIGZvbnQtc2l6ZT0iMTMiIGxlbmd0aEFkanVzdD0ic3BhY2luZyIgdGV4dExlbmd0aD0iNDgiIHg9IjgxOS42IiB5PSI5NDQuMjg5MSI+bWFuYWdlczwvdGV4dD48dGV4dCBmaWxsPSIjMDAwMDAwIiBmb250LWZhbWlseT0ic2Fucy1zZXJpZiIgZm9udC1zaXplPSIxMyIgbGVuZ3RoQWRqdXN0PSJzcGFjaW5nIiB0ZXh0TGVuZ3RoPSI3IiB4PSIxMDQ4LjMyIiB5PSI5NDMuNjU3Ij4xPC90ZXh0Pjx0ZXh0IGZpbGw9IiMwMDAwMDAiIGZvbnQtZmFtaWx5PSJzYW5zLXNlcmlmIiBmb250LXNpemU9IjEzIiBsZW5ndGhBZGp1c3Q9InNwYWNpbmciIHRleHRMZW5ndGg9IjYiIHg9IjgxNy41ODM2IiB5PSI4MjQuODk3OCI+KjwvdGV4dD48L2c+PCEtLWxpbmsgVGVhY2hlciB0byBUaW1lVGFibGUtLT48ZyBpZD0ibGlua19UZWFjaGVyX1RpbWVUYWJsZSI+PHBhdGggY29kZUxpbmU9IjIzMyIgZD0iTTgyMy42NSwyMDkzIEM3NjAuNjQsMjA5MyA2ODAuNTgsMjA5MyA2ODAuNTgsMjA5MyBDNjgwLjU4LDIwOTMgNjgwLjU4LDIzMTQuMTIgNjgwLjU4LDI0NDUuODQgIiBmaWxsPSJub25lIiBpZD0iVGVhY2hlci1UaW1lVGFibGUiIHN0eWxlPSJzdHJva2U6IzAwMDAwMDtzdHJva2Utd2lkdGg6MS4wOyIvPjx0ZXh0IGZpbGw9IiMwMDAwMDAiIGZvbnQtZmFtaWx5PSJzYW5zLXNlcmlmIiBmb250LXNpemU9IjEzIiBsZW5ndGhBZGp1c3Q9InNwYWNpbmciIHRleHRMZW5ndGg9IjYyIiB4PSI2MTcuNTgiIHk9IjIxOTYuMTc5MSI+c2NoZWR1bGVzPC90ZXh0Pjx0ZXh0IGZpbGw9IiMwMDAwMDAiIGZvbnQtZmFtaWx5PSJzYW5zLXNlcmlmIiBmb250LXNpemU9IjEzIiBsZW5ndGhBZGp1c3Q9InNwYWNpbmciIHRleHRMZW5ndGg9IjYiIHg9IjgwOS42NDc1IiB5PSIyMDk4LjczODgiPio8L3RleHQ+PHRleHQgZmlsbD0iIzAwMDAwMCIgZm9udC1mYW1pbHk9InNhbnMtc2VyaWYiIGZvbnQtc2l6ZT0iMTMiIGxlbmd0aEFkanVzdD0ic3BhY2luZyIgdGV4dExlbmd0aD0iNiIgeD0iNjc0LjA5MjciIHk9IjI0MzYuMzk2MyI+KjwvdGV4dD48L2c+PCEtLWxpbmsgVGVhY2hlciB0byBBc3Nlc3NtZW50LS0+PGcgaWQ9ImxpbmtfVGVhY2hlcl9Bc3Nlc3NtZW50Ij48cGF0aCBjb2RlTGluZT0iMjM0IiBkPSJNODM0LjUsMjEyMC4wMiBDODM0LjUsMjEzOS40NCA4MzQuNSwyMTU5Ljk1IDgzNC41LDIxNzkuNjIgIiBmaWxsPSJub25lIiBpZD0iVGVhY2hlci1Bc3Nlc3NtZW50IiBzdHlsZT0ic3Ryb2tlOiMwMDAwMDA7c3Ryb2tlLXdpZHRoOjEuMDsiLz48dGV4dCBmaWxsPSIjMDAwMDAwIiBmb250LWZhbWlseT0ic2Fucy1zZXJpZiIgZm9udC1zaXplPSIxMyIgbGVuZ3RoQWRqdXN0PSJzcGFjaW5nIiB0ZXh0TGVuZ3RoPSI0OCIgeD0iNzg1LjUiIHk9IjIxNDguMTA5MSI+Y3JlYXRlczwvdGV4dD48dGV4dCBmaWxsPSIjMDAwMDAwIiBmb250LWZhbWlseT0ic2Fucy1zZXJpZiIgZm9udC1zaXplPSIxMyIgbGVuZ3RoQWRqdXN0PSJzcGFjaW5nIiB0ZXh0TGVuZ3RoPSI3IiB4PSI4MjIuMzUxMiIgeT0iMjE0MC4xNjE1Ij4xPC90ZXh0Pjx0ZXh0IGZpbGw9IiMwMDAwMDAiIGZvbnQtZmFtaWx5PSJzYW5zLXNlcmlmIiBmb250LXNpemU9IjEzIiBsZW5ndGhBZGp1c3Q9InNwYWNpbmciIHRleHRMZW5ndGg9IjYiIHg9IjgzMy4xMTI5IiB5PSIyMTcwLjUzODUiPio8L3RleHQ+PC9nPjwhLS1saW5rIFRlYWNoZXIgdG8gRXhhbS0tPjxnIGlkPSJsaW5rX1RlYWNoZXJfRXhhbSI+PHBhdGggY29kZUxpbmU9IjIzNSIgZD0iTTgyMy43LDIwNjYgQzY1OS44MywyMDY2IDI4Mi43NSwyMDY2IDI4Mi43NSwyMDY2IEMyODIuNzUsMjA2NiAyODIuNzUsMjEyMy45MSAyODIuNzUsMjE3OS45ICIgZmlsbD0ibm9uZSIgaWQ9IlRlYWNoZXItRXhhbSIgc3R5bGU9InN0cm9rZTojMDAwMDAwO3N0cm9rZS13aWR0aDoxLjA7Ii8+PHRleHQgZmlsbD0iIzAwMDAwMCIgZm9udC1mYW1pbHk9InNhbnMtc2VyaWYiIGZvbnQtc2l6ZT0iMTMiIGxlbmd0aEFkanVzdD0ic3BhY2luZyIgdGV4dExlbmd0aD0iNTUiIHg9IjQ0MC4yNyIgeT0iMjA2NC4yODkxIj5jb25kdWN0czwvdGV4dD48dGV4dCBmaWxsPSIjMDAwMDAwIiBmb250LWZhbWlseT0ic2Fucy1zZXJpZiIgZm9udC1zaXplPSIxMyIgbGVuZ3RoQWRqdXN0PSJzcGFjaW5nIiB0ZXh0TGVuZ3RoPSI3IiB4PSI4MDguNjUxMSIgeT0iMjA2OC45NTQ0Ij4xPC90ZXh0Pjx0ZXh0IGZpbGw9IiMwMDAwMDAiIGZvbnQtZmFtaWx5PSJzYW5zLXNlcmlmIiBmb250LXNpemU9IjEzIiBsZW5ndGhBZGp1c3Q9InNwYWNpbmciIHRleHRMZW5ndGg9IjYiIHg9IjI3OC40NjMzIiB5PSIyMTcwLjQ5OTIiPio8L3RleHQ+PC9nPjwhLS1saW5rIFRlYWNoZXIgdG8gU2VjdGlvbkhlYWQtLT48ZyBpZD0ibGlua19UZWFjaGVyX1NlY3Rpb25IZWFkIj48cGF0aCBjb2RlTGluZT0iMjM2IiBkPSJNOTYyLjEyLDE5MjguNjcgQzk2Mi4xMiwxNjY5Ljg0IDk2Mi4xMiw5NzYgOTYyLjEyLDk3NiBDOTYyLjEyLDk3NiAxMDEzLjQsOTc2IDEwNjIuOTcsOTc2ICIgZmlsbD0ibm9uZSIgaWQ9IlRlYWNoZXItU2VjdGlvbkhlYWQiIHN0eWxlPSJzdHJva2U6IzAwMDAwMDtzdHJva2Utd2lkdGg6MS4wOyIvPjx0ZXh0IGZpbGw9IiMwMDAwMDAiIGZvbnQtZmFtaWx5PSJzYW5zLXNlcmlmIiBmb250LXNpemU9IjEzIiBsZW5ndGhBZGp1c3Q9InNwYWNpbmciIHRleHRMZW5ndGg9IjY4IiB4PSI4OTMuMTIiIHk9IjE0MDAuMTk5MSI+cmVwb3J0cyB0bzwvdGV4dD48dGV4dCBmaWxsPSIjMDAwMDAwIiBmb250LWZhbWlseT0ic2Fucy1zZXJpZiIgZm9udC1zaXplPSIxMyIgbGVuZ3RoQWRqdXN0PSJzcGFjaW5nIiB0ZXh0TGVuZ3RoPSI2IiB4PSI5NjEuMTYwOCIgeT0iMTkxOS41Mjk4Ij4qPC90ZXh0Pjx0ZXh0IGZpbGw9IiMwMDAwMDAiIGZvbnQtZmFtaWx5PSJzYW5zLXNlcmlmIiBmb250LXNpemU9IjEzIiBsZW5ndGhBZGp1c3Q9InNwYWNpbmciIHRleHRMZW5ndGg9IjciIHg9IjEwNDguMTIxIiB5PSI5NzYuMDc3NCI+MTwvdGV4dD48L2c+PCEtLWxpbmsgU2VjdGlvbkhlYWQgdG8gVGVhY2hlci0tPjxnIGlkPSJsaW5rX1NlY3Rpb25IZWFkX1RlYWNoZXIiPjxwYXRoIGNvZGVMaW5lPSIyNDEiIGQ9Ik0xMDYzLjA2LDEwMDUgQzEwMTUuNDMsMTAwNSA5NjYuOTQsMTAwNSA5NjYuOTQsMTAwNSBDOTY2Ljk0LDEwMDUgOTY2Ljk0LDE2NzQuOCA5NjYuOTQsMTkyOC41OSAiIGZpbGw9Im5vbmUiIGlkPSJTZWN0aW9uSGVhZC1UZWFjaGVyIiBzdHlsZT0ic3Ryb2tlOiMwMDAwMDA7c3Ryb2tlLXdpZHRoOjEuMDsiLz48dGV4dCBmaWxsPSIjMDAwMDAwIiBmb250LWZhbWlseT0ic2Fucy1zZXJpZiIgZm9udC1zaXplPSIxMyIgbGVuZ3RoQWRqdXN0PSJzcGFjaW5nIiB0ZXh0TGVuZ3RoPSI2OSIgeD0iODk2Ljk0IiB5PSIxNDE3LjAxOTEiPnN1cGVydmlzZXM8L3RleHQ+PHRleHQgZmlsbD0iIzAwMDAwMCIgZm9udC1mYW1pbHk9InNhbnMtc2VyaWYiIGZvbnQtc2l6ZT0iMTMiIGxlbmd0aEFkanVzdD0ic3BhY2luZyIgdGV4dExlbmd0aD0iNyIgeD0iMTA0OC4yMTg1IiB5PSIxMDA3LjQ3OSI+MTwvdGV4dD48dGV4dCBmaWxsPSIjMDAwMDAwIiBmb250LWZhbWlseT0ic2Fucy1zZXJpZiIgZm9udC1zaXplPSIxMyIgbGVuZ3RoQWRqdXN0PSJzcGFjaW5nIiB0ZXh0TGVuZ3RoPSI2IiB4PSI5NzIuODc2OCIgeT0iMTkxOS40NDMyIj4qPC90ZXh0PjwvZz48IS0tbGluayBUZWFjaGVyIHRvIFNlc3Npb24tLT48ZyBpZD0ibGlua19UZWFjaGVyX1Nlc3Npb24iPjxwYXRoIGNvZGVMaW5lPSIyMzciIGQ9Ik04MjMuNDgsMjAxMSBDNzQ3LjE0LDIwMTEgNjM5Ljc1LDIwMTEgNjM5Ljc1LDIwMTEgQzYzOS43NSwyMDExIDYzOS43NSwxOTM1LjA3IDYzOS43NSwxODY5LjA3ICIgZmlsbD0ibm9uZSIgaWQ9IlRlYWNoZXItU2Vzc2lvbiIgc3R5bGU9InN0cm9rZTojMDAwMDAwO3N0cm9rZS13aWR0aDoxLjA7Ii8+PHRleHQgZmlsbD0iIzAwMDAwMCIgZm9udC1mYW1pbHk9InNhbnMtc2VyaWYiIGZvbnQtc2l6ZT0iMTMiIGxlbmd0aEFkanVzdD0ic3BhY2luZyIgdGV4dExlbmd0aD0iNDgiIHg9IjYxMS42NSIgeT0iMjAwOS4yODkxIj50ZWFjaGVzPC90ZXh0Pjx0ZXh0IGZpbGw9IiMwMDAwMDAiIGZvbnQtZmFtaWx5PSJzYW5zLXNlcmlmIiBmb250LXNpemU9IjEzIiBsZW5ndGhBZGp1c3Q9InNwYWNpbmciIHRleHRMZW5ndGg9IjciIHg9IjgwOC43NzUzIiB5PSIyMDA4LjM3MzgiPjE8L3RleHQ+PHRleHQgZmlsbD0iIzAwMDAwMCIgZm9udC1mYW1pbHk9InNhbnMtc2VyaWYiIGZvbnQtc2l6ZT0iMTMiIGxlbmd0aEFkanVzdD0ic3BhY2luZyIgdGV4dExlbmd0aD0iNiIgeD0iNjM3Ljc2OTUiIHk9IjE4ODkuMjE1NCI+KjwvdGV4dD48L2c+PCEtLWxpbmsgU2Vzc2lvbiB0byBUZWFjaGVyLS0+PGcgaWQ9ImxpbmtfU2Vzc2lvbl9UZWFjaGVyIj48cGF0aCBjb2RlTGluZT0iMjU4IiBkPSJNNjMyLjI1LDE4NjkuMzUgQzYzMi4yNSwxOTQ1LjQgNjMyLjI1LDIwMzkgNjMyLjI1LDIwMzkgQzYzMi4yNSwyMDM5IDc0NC43NywyMDM5IDgyMy40NSwyMDM5ICIgZmlsbD0ibm9uZSIgaWQ9IlNlc3Npb24tVGVhY2hlciIgc3R5bGU9InN0cm9rZTojMDAwMDAwO3N0cm9rZS13aWR0aDoxLjA7Ii8+PHRleHQgZmlsbD0iIzAwMDAwMCIgZm9udC1mYW1pbHk9InNhbnMtc2VyaWYiIGZvbnQtc2l6ZT0iMTMiIGxlbmd0aEFkanVzdD0ic3BhY2luZyIgdGV4dExlbmd0aD0iNzUiIHg9IjU2Ny4wMiIgeT0iMjAzNy4yODkxIj5hc3NpZ25lZCB0bzwvdGV4dD48dGV4dCBmaWxsPSIjMDAwMDAwIiBmb250LWZhbWlseT0ic2Fucy1zZXJpZiIgZm9udC1zaXplPSIxMyIgbGVuZ3RoQWRqdXN0PSJzcGFjaW5nIiB0ZXh0TGVuZ3RoPSI2IiB4PSI2MjkuNTU0NyIgeT0iMTg4OS4xOTUzIj4qPC90ZXh0Pjx0ZXh0IGZpbGw9IiMwMDAwMDAiIGZvbnQtZmFtaWx5PSJzYW5zLXNlcmlmIiBmb250LXNpemU9IjEzIiBsZW5ndGhBZGp1c3Q9InNwYWNpbmciIHRleHRMZW5ndGg9IjciIHg9IjgwOC43NDIzIiB5PSIyMDM5LjEzIj4xPC90ZXh0PjwvZz48IS0tbGluayBUZWFjaGVyIHRvIFN0dWRlbnQtLT48ZyBpZD0ibGlua19UZWFjaGVyX1N0dWRlbnQiPjxwYXRoIGNvZGVMaW5lPSIyMzgiIGQ9Ik04MjMuNTEsMTk1NyBDODEzLjI4LDE5NTcgODA2LjE5LDE5NTcgODA2LjE5LDE5NTcgQzgwNi4xOSwxOTU3IDgwNi4xOSwxMTI3LjI4IDgwNi4xOSw4MDUuMTkgIiBmaWxsPSJub25lIiBpZD0iVGVhY2hlci1TdHVkZW50IiBzdHlsZT0ic3Ryb2tlOiMwMDAwMDA7c3Ryb2tlLXdpZHRoOjEuMDsiLz48dGV4dCBmaWxsPSIjMDAwMDAwIiBmb250LWZhbWlseT0ic2Fucy1zZXJpZiIgZm9udC1zaXplPSIxMyIgbGVuZ3RoQWRqdXN0PSJzcGFjaW5nIiB0ZXh0TGVuZ3RoPSI0OCIgeD0iODA3LjE5IiB5PSIxMzg4LjAzOTEiPnRlYWNoZXM8L3RleHQ+PHRleHQgZmlsbD0iIzAwMDAwMCIgZm9udC1mYW1pbHk9InNhbnMtc2VyaWYiIGZvbnQtc2l6ZT0iMTMiIGxlbmd0aEFkanVzdD0ic3BhY2luZyIgdGV4dExlbmd0aD0iMjUiIHg9Ijc5MC43NDAyIiB5PSIxOTQ5Ljc0NjgiPjEuLio8L3RleHQ+PHRleHQgZmlsbD0iIzAwMDAwMCIgZm9udC1mYW1pbHk9InNhbnMtc2VyaWYiIGZvbnQtc2l6ZT0iMTMiIGxlbmd0aEFkanVzdD0ic3BhY2luZyIgdGV4dExlbmd0aD0iNiIgeD0iODEwLjExNzgiIHk9IjgyNS4xNTQ1Ij4qPC90ZXh0PjwvZz48IS0tbGluayBTZWN0aW9uSGVhZCB0byBUaW1lVGFibGUtLT48ZyBpZD0ibGlua19TZWN0aW9uSGVhZF9UaW1lVGFibGUiPjxwYXRoIGNvZGVMaW5lPSIyNDIiIGQ9Ik0xMTc1LDEwMzMuNjcgQzExNzUsMTM0MC44MSAxMTc1LDI1MTAgMTE3NSwyNTEwIEMxMTc1LDI1MTAgODk0LjA1LDI1MTAgNzU2Ljg3LDI1MTAgIiBmaWxsPSJub25lIiBpZD0iU2VjdGlvbkhlYWQtVGltZVRhYmxlIiBzdHlsZT0ic3Ryb2tlOiMwMDAwMDA7c3Ryb2tlLXdpZHRoOjEuMDsiLz48dGV4dCBmaWxsPSIjMDAwMDAwIiBmb250LWZhbWlseT0ic2Fucy1zZXJpZiIgZm9udC1zaXplPSIxMyIgbGVuZ3RoQWRqdXN0PSJzcGFjaW5nIiB0ZXh0TGVuZ3RoPSI0OCIgeD0iMTEyNiIgeT0iMTk3OS4xODkxIj5tYW5hZ2VzPC90ZXh0Pjx0ZXh0IGZpbGw9IiMwMDAwMDAiIGZvbnQtZmFtaWx5PSJzYW5zLXNlcmlmIiBmb250LXNpemU9IjEzIiBsZW5ndGhBZGp1c3Q9InNwYWNpbmciIHRleHRMZW5ndGg9IjciIHg9IjExNjkuNjQ0MSIgeT0iMTA1My42MDIxIj4xPC90ZXh0Pjx0ZXh0IGZpbGw9IiMwMDAwMDAiIGZvbnQtZmFtaWx5PSJzYW5zLXNlcmlmIiBmb250LXNpemU9IjEzIiBsZW5ndGhBZGp1c3Q9InNwYWNpbmciIHRleHRMZW5ndGg9IjYiIHg9Ijc2NC43NzE0IiB5PSIyNTA1LjQyNjMiPio8L3RleHQ+PC9nPjwhLS1saW5rIFNlY3Rpb25IZWFkIHRvIFJlcG9ydC0tPjxnIGlkPSJsaW5rX1NlY3Rpb25IZWFkX1JlcG9ydCI+PHBhdGggY29kZUxpbmU9IjI0MyIgZD0iTTEwODQsMTAzMy41NiBDMTA4NCwxMDU5LjQ3IDEwODQsMTA4OC45MSAxMDg0LDExMTUuOTUgIiBmaWxsPSJub25lIiBpZD0iU2VjdGlvbkhlYWQtUmVwb3J0IiBzdHlsZT0ic3Ryb2tlOiMwMDAwMDA7c3Ryb2tlLXdpZHRoOjEuMDsiLz48dGV4dCBmaWxsPSIjMDAwMDAwIiBmb250LWZhbWlseT0ic2Fucy1zZXJpZiIgZm9udC1zaXplPSIxMyIgbGVuZ3RoQWRqdXN0PSJzcGFjaW5nIiB0ZXh0TGVuZ3RoPSI0NyIgeD0iMTAzNiIgeT0iMTA3My4wMzkxIj5yZXZpZXdzPC90ZXh0Pjx0ZXh0IGZpbGw9IiMwMDAwMDAiIGZvbnQtZmFtaWx5PSJzYW5zLXNlcmlmIiBmb250LXNpemU9IjEzIiBsZW5ndGhBZGp1c3Q9InNwYWNpbmciIHRleHRMZW5ndGg9IjciIHg9IjEwNjkuNzQwMiIgeT0iMTA1My43MzE5Ij4xPC90ZXh0Pjx0ZXh0IGZpbGw9IiMwMDAwMDAiIGZvbnQtZmFtaWx5PSJzYW5zLXNlcmlmIiBmb250LXNpemU9IjEzIiBsZW5ndGhBZGp1c3Q9InNwYWNpbmciIHRleHRMZW5ndGg9IjYiIHg9IjEwODIuMDc0NiIgeT0iMTEwNi4yNzgzIj4qPC90ZXh0PjwvZz48IS0tbGluayBQcmluY2lwYWwgdG8gUmVwb3J0LS0+PGcgaWQ9ImxpbmtfUHJpbmNpcGFsX1JlcG9ydCI+PHBhdGggY29kZUxpbmU9IjI0NyIgZD0iTTExMjQuNzMsNDY4IEMxMDcyLjU3LDQ2OCAxMDE3LjUsNDY4IDEwMTcuNSw0NjggQzEwMTcuNSw0NjggMTAxNy41LDkyMC41OSAxMDE3LjUsMTExNS45NSAiIGZpbGw9Im5vbmUiIGlkPSJQcmluY2lwYWwtUmVwb3J0IiBzdHlsZT0ic3Ryb2tlOiMwMDAwMDA7c3Ryb2tlLXdpZHRoOjEuMDsiLz48dGV4dCBmaWxsPSIjMDAwMDAwIiBmb250LWZhbWlseT0ic2Fucy1zZXJpZiIgZm9udC1zaXplPSIxMyIgbGVuZ3RoQWRqdXN0PSJzcGFjaW5nIiB0ZXh0TGVuZ3RoPSI1NiIgeD0iOTYwLjUiIHk9IjczNi42NDkxIj5vdmVyc2VlczwvdGV4dD48dGV4dCBmaWxsPSIjMDAwMDAwIiBmb250LWZhbWlseT0ic2Fucy1zZXJpZiIgZm9udC1zaXplPSIxMyIgbGVuZ3RoQWRqdXN0PSJzcGFjaW5nIiB0ZXh0TGVuZ3RoPSI3IiB4PSIxMTA5Ljg2MTIiIHk9IjQ3MC4wNjQzIj4xPC90ZXh0Pjx0ZXh0IGZpbGw9IiMwMDAwMDAiIGZvbnQtZmFtaWx5PSJzYW5zLXNlcmlmIiBmb250LXNpemU9IjEzIiBsZW5ndGhBZGp1c3Q9InNwYWNpbmciIHRleHRMZW5ndGg9IjYiIHg9IjEwMDkuMjM2MyIgeT0iMTEwNi4yNzgzIj4qPC90ZXh0PjwvZz48IS0tbGluayBQcmluY2lwYWwgdG8gU2VjdGlvbkhlYWQtLT48ZyBpZD0ibGlua19QcmluY2lwYWxfU2VjdGlvbkhlYWQiPjxwYXRoIGNvZGVMaW5lPSIyNDgiIGQ9Ik0xMTg1LDQ5NCBDMTE4NSw1OTMuNzEgMTE4NSw3ODIuOTQgMTE4NSw4ODcuMTMgIiBmaWxsPSJub25lIiBpZD0iUHJpbmNpcGFsLVNlY3Rpb25IZWFkIiBzdHlsZT0ic3Ryb2tlOiMwMDAwMDA7c3Ryb2tlLXdpZHRoOjEuMDsiLz48dGV4dCBmaWxsPSIjMDAwMDAwIiBmb250LWZhbWlseT0ic2Fucy1zZXJpZiIgZm9udC1zaXplPSIxMyIgbGVuZ3RoQWRqdXN0PSJzcGFjaW5nIiB0ZXh0TGVuZ3RoPSI0OCIgeD0iMTEzNiIgeT0iNjg4Ljg1OTEiPm1hbmFnZXM8L3RleHQ+PHRleHQgZmlsbD0iIzAwMDAwMCIgZm9udC1mYW1pbHk9InNhbnMtc2VyaWYiIGZvbnQtc2l6ZT0iMTMiIGxlbmd0aEFkanVzdD0ic3BhY2luZyIgdGV4dExlbmd0aD0iNyIgeD0iMTE3NC4xOTkyIiB5PSI1MTQuMjIiPjE8L3RleHQ+PHRleHQgZmlsbD0iIzAwMDAwMCIgZm9udC1mYW1pbHk9InNhbnMtc2VyaWYiIGZvbnQtc2l6ZT0iMTMiIGxlbmd0aEFkanVzdD0ic3BhY2luZyIgdGV4dExlbmd0aD0iNiIgeD0iMTE4Mi4wMzUyIiB5PSI4NzcuNzQwMSI+KjwvdGV4dD48L2c+PCEtLWxpbmsgUHJpbmNpcGFsIHRvIFRlYWNoZXItLT48ZyBpZD0ibGlua19QcmluY2lwYWxfVGVhY2hlciI+PHBhdGggY29kZUxpbmU9IjI0OSIgZD0iTTExMjQuNTksNDQyIEMxMDUwLjExLDQ0MiA5NTcuMzEsNDQyIDk1Ny4zMSw0NDIgQzk1Ny4zMSw0NDIgOTU3LjMxLDE1ODYuMjggOTU3LjMxLDE5MjguNzggIiBmaWxsPSJub25lIiBpZD0iUHJpbmNpcGFsLVRlYWNoZXIiIHN0eWxlPSJzdHJva2U6IzAwMDAwMDtzdHJva2Utd2lkdGg6MS4wOyIvPjx0ZXh0IGZpbGw9IiMwMDAwMDAiIGZvbnQtZmFtaWx5PSJzYW5zLXNlcmlmIiBmb250LXNpemU9IjEzIiBsZW5ndGhBZGp1c3Q9InNwYWNpbmciIHRleHRMZW5ndGg9IjYxIiB4PSI4OTUuMzEiIHk9IjExMDAuMDM5MSI+ZXZhbHVhdGVzPC90ZXh0Pjx0ZXh0IGZpbGw9IiMwMDAwMDAiIGZvbnQtZmFtaWx5PSJzYW5zLXNlcmlmIiBmb250LXNpemU9IjEzIiBsZW5ndGhBZGp1c3Q9InNwYWNpbmciIHRleHRMZW5ndGg9IjciIHg9IjExMDkuNzA5NiIgeT0iNDQxLjkxMTEiPjE8L3RleHQ+PHRleHQgZmlsbD0iIzAwMDAwMCIgZm9udC1mYW1pbHk9InNhbnMtc2VyaWYiIGZvbnQtc2l6ZT0iMTMiIGxlbmd0aEFkanVzdD0ic3BhY2luZyIgdGV4dExlbmd0aD0iNiIgeD0iOTU2LjEyNzciIHk9IjE5MTkuMzMxMiI+KjwvdGV4dD48L2c+PCEtLWxpbmsgUHJpbmNpcGFsIHRvIFN0dWRlbnQtLT48ZyBpZD0ibGlua19QcmluY2lwYWxfU3R1ZGVudCI+PHBhdGggY29kZUxpbmU9IjI1MCIgZD0iTTExMjQuNjcsNDE2IEM5ODYuNjQsNDE2IDc0MS4yNSw0MTYgNzQxLjI1LDQxNiBDNzQxLjI1LDQxNiA3NDEuMjUsNDg2LjA2IDc0MS4yNSw1NTMuOTIgIiBmaWxsPSJub25lIiBpZD0iUHJpbmNpcGFsLVN0dWRlbnQiIHN0eWxlPSJzdHJva2U6IzAwMDAwMDtzdHJva2Utd2lkdGg6MS4wOyIvPjx0ZXh0IGZpbGw9IiMwMDAwMDAiIGZvbnQtZmFtaWx5PSJzYW5zLXNlcmlmIiBmb250LXNpemU9IjEzIiBsZW5ndGhBZGp1c3Q9InNwYWNpbmciIHRleHRMZW5ndGg9IjUzIiB4PSI4MTAiIHk9IjQxNC4yODkxIj5tb25pdG9yczwvdGV4dD48dGV4dCBmaWxsPSIjMDAwMDAwIiBmb250LWZhbWlseT0ic2Fucy1zZXJpZiIgZm9udC1zaXplPSIxMyIgbGVuZ3RoQWRqdXN0PSJzcGFjaW5nIiB0ZXh0TGVuZ3RoPSI3IiB4PSIxMTA5Ljc5NjIiIHk9IjQxMy43NTgiPjE8L3RleHQ+PHRleHQgZmlsbD0iIzAwMDAwMCIgZm9udC1mYW1pbHk9InNhbnMtc2VyaWYiIGZvbnQtc2l6ZT0iMTMiIGxlbmd0aEFkanVzdD0ic3BhY2luZyIgdGV4dExlbmd0aD0iNiIgeD0iNzM1LjA0ODQiIHk9IjU0NC4zNzM1Ij4qPC90ZXh0PjwvZz48IS0tbGluayBQcmluY2lwYWwgdG8gVGltZVRhYmxlLS0+PGcgaWQ9ImxpbmtfUHJpbmNpcGFsX1RpbWVUYWJsZSI+PHBhdGggY29kZUxpbmU9IjI1MSIgZD0iTTEyNzYuNSw0OTQuMTggQzEyNzYuNSw4NTQuMzkgMTI3Ni41LDI1NzQgMTI3Ni41LDI1NzQgQzEyNzYuNSwyNTc0IDkxNS43NywyNTc0IDc1Ni44OSwyNTc0ICIgZmlsbD0ibm9uZSIgaWQ9IlByaW5jaXBhbC1UaW1lVGFibGUiIHN0eWxlPSJzdHJva2U6IzAwMDAwMDtzdHJva2Utd2lkdGg6MS4wOyIvPjx0ZXh0IGZpbGw9IiMwMDAwMDAiIGZvbnQtZmFtaWx5PSJzYW5zLXNlcmlmIiBmb250LXNpemU9IjEzIiBsZW5ndGhBZGp1c3Q9InNwYWNpbmciIHRleHRMZW5ndGg9IjU2IiB4PSIxMjE5LjUiIHk9IjE3OTIuMTc5MSI+YXBwcm92ZXM8L3RleHQ+PHRleHQgZmlsbD0iIzAwMDAwMCIgZm9udC1mYW1pbHk9InNhbnMtc2VyaWYiIGZvbnQtc2l6ZT0iMTMiIGxlbmd0aEFkanVzdD0ic3BhY2luZyIgdGV4dExlbmd0aD0iNyIgeD0iMTI3NS4zNTIzIiB5PSI1MTMuOTY1NCI+MTwvdGV4dD48dGV4dCBmaWxsPSIjMDAwMDAwIiBmb250LWZhbWlseT0ic2Fucy1zZXJpZiIgZm9udC1zaXplPSIxMyIgbGVuZ3RoQWRqdXN0PSJzcGFjaW5nIiB0ZXh0TGVuZ3RoPSI2IiB4PSI3NjQuNzkzNSIgeT0iMjU3Ni4wMjYzIj4qPC90ZXh0PjwvZz48IS0tbGluayBBZG1pbiB0byBUaW1lVGFibGUtLT48ZyBpZD0ibGlua19BZG1pbl9UaW1lVGFibGUiPjxwYXRoIGNvZGVMaW5lPSIyNTMiIGQ9Ik0zNDMuNzUsMTI3Ny4xNyBDMzQzLjc1LDE1NjEuMDcgMzQzLjc1LDI1NzQgMzQzLjc1LDI1NzQgQzM0My43NSwyNTc0IDUwOS43MywyNTc0IDYwOS41OCwyNTc0ICIgZmlsbD0ibm9uZSIgaWQ9IkFkbWluLVRpbWVUYWJsZSIgc3R5bGU9InN0cm9rZTojMDAwMDAwO3N0cm9rZS13aWR0aDoxLjA7Ii8+PHRleHQgZmlsbD0iIzAwMDAwMCIgZm9udC1mYW1pbHk9InNhbnMtc2VyaWYiIGZvbnQtc2l6ZT0iMTMiIGxlbmd0aEFkanVzdD0ic3BhY2luZyIgdGV4dExlbmd0aD0iNjgiIHg9IjI3NC43NSIgeT0iMjA1Ni43ODkxIj5jb25maWd1cmVzPC90ZXh0Pjx0ZXh0IGZpbGw9IiMwMDAwMDAiIGZvbnQtZmFtaWx5PSJzYW5zLXNlcmlmIiBmb250LXNpemU9IjEzIiBsZW5ndGhBZGp1c3Q9InNwYWNpbmciIHRleHRMZW5ndGg9IjciIHg9IjM0Mi44NSIgeT0iMTI5Ny4xMDIxIj4xPC90ZXh0Pjx0ZXh0IGZpbGw9IiMwMDAwMDAiIGZvbnQtZmFtaWx5PSJzYW5zLXNlcmlmIiBmb250LXNpemU9IjEzIiBsZW5ndGhBZGp1c3Q9InNwYWNpbmciIHRleHRMZW5ndGg9IjYiIHg9IjU5NS42NzM0IiB5PSIyNTc2LjAyNjMiPio8L3RleHQ+PC9nPjwhLS1saW5rIEFkbWluIHRvIFNlc3Npb24tLT48ZyBpZD0ibGlua19BZG1pbl9TZXNzaW9uIj48cGF0aCBjb2RlTGluZT0iMjU0IiBkPSJNMzU1Ljc1LDEyNzcuMDYgQzM1NS43NSwxNDMwLjg3IDM1NS43NSwxNzc0IDM1NS43NSwxNzc0IEMzNTUuNzUsMTc3NCA0NTMuNTcsMTc3NCA1MjEuMjEsMTc3NCAiIGZpbGw9Im5vbmUiIGlkPSJBZG1pbi1TZXNzaW9uIiBzdHlsZT0ic3Ryb2tlOiMwMDAwMDA7c3Ryb2tlLXdpZHRoOjEuMDsiLz48dGV4dCBmaWxsPSIjMDAwMDAwIiBmb250LWZhbWlseT0ic2Fucy1zZXJpZiIgZm9udC1zaXplPSIxMyIgbGVuZ3RoQWRqdXN0PSJzcGFjaW5nIiB0ZXh0TGVuZ3RoPSI1OSIgeD0iMjk1Ljc1IiB5PSIxNjA2LjU0OTEiPm1haW50YWluczwvdGV4dD48dGV4dCBmaWxsPSIjMDAwMDAwIiBmb250LWZhbWlseT0ic2Fucy1zZXJpZiIgZm9udC1zaXplPSIxMyIgbGVuZ3RoQWRqdXN0PSJzcGFjaW5nIiB0ZXh0TGVuZ3RoPSI3IiB4PSIzNTYuMjMxMyIgeT0iMTI5Ny4yMzE5Ij4xPC90ZXh0Pjx0ZXh0IGZpbGw9IiMwMDAwMDAiIGZvbnQtZmFtaWx5PSJzYW5zLXNlcmlmIiBmb250LXNpemU9IjEzIiBsZW5ndGhBZGp1c3Q9InNwYWNpbmciIHRleHRMZW5ndGg9IjYiIHg9IjUwNy4xNjE0IiB5PSIxNzcyLjYyNCI+KjwvdGV4dD48L2c+PCEtLWxpbmsgVGltZVRhYmxlIHRvIFNlc3Npb24tLT48ZyBpZD0ibGlua19UaW1lVGFibGVfU2Vzc2lvbiI+PHBhdGggY29kZUxpbmU9IjI1NyIgZD0iTTYyNC43NSwyNDQ1Ljc5IEM2MjQuNzUsMjI5OC4yMSA2MjQuNzUsMjAxNi43OCA2MjQuNzUsMTg2OS4yMSAiIGZpbGw9Im5vbmUiIGlkPSJUaW1lVGFibGUtU2Vzc2lvbiIgc3R5bGU9InN0cm9rZTojMDAwMDAwO3N0cm9rZS13aWR0aDoxLjA7Ii8+PHRleHQgZmlsbD0iIzAwMDAwMCIgZm9udC1mYW1pbHk9InNhbnMtc2VyaWYiIGZvbnQtc2l6ZT0iMTMiIGxlbmd0aEFkanVzdD0ic3BhY2luZyIgdGV4dExlbmd0aD0iNTQiIHg9IjU2OS43NSIgeT0iMjE1NS43ODkxIj5jb250YWluczwvdGV4dD48dGV4dCBmaWxsPSIjMDAwMDAwIiBmb250LWZhbWlseT0ic2Fucy1zZXJpZiIgZm9udC1zaXplPSIxMyIgbGVuZ3RoQWRqdXN0PSJzcGFjaW5nIiB0ZXh0TGVuZ3RoPSI3IiB4PSI2MTIuNDIxOSIgeT0iMjQzNi4zNDIxIj4xPC90ZXh0Pjx0ZXh0IGZpbGw9IiMwMDAwMDAiIGZvbnQtZmFtaWx5PSJzYW5zLXNlcmlmIiBmb250LXNpemU9IjEzIiBsZW5ndGhBZGp1c3Q9InNwYWNpbmciIHRleHRMZW5ndGg9IjYiIHg9IjYyMS41MDM5IiB5PSIxODg5LjA0NSI+KjwvdGV4dD48L2c+PCEtLWxpbmsgU2Vzc2lvbiB0byBTdHVkZW50LS0+PGcgaWQ9ImxpbmtfU2Vzc2lvbl9TdHVkZW50Ij48cGF0aCBjb2RlTGluZT0iMjU5IiBkPSJNNjQ3LjM0LDE3NzQgQzcxMC4yLDE3NzQgNzk3LjQyLDE3NzQgNzk3LjQyLDE3NzQgQzc5Ny40MiwxNzc0IDc5Ny40MiwxMDkyLjU0IDc5Ny40Miw4MDUuMDUgIiBmaWxsPSJub25lIiBpZD0iU2Vzc2lvbi1TdHVkZW50IiBzdHlsZT0ic3Ryb2tlOiMwMDAwMDA7c3Ryb2tlLXdpZHRoOjEuMDsiLz48dGV4dCBmaWxsPSIjMDAwMDAwIiBmb250LWZhbWlseT0ic2Fucy1zZXJpZiIgZm9udC1zaXplPSIxMyIgbGVuZ3RoQWRqdXN0PSJzcGFjaW5nIiB0ZXh0TGVuZ3RoPSI3NSIgeD0iNzk4LjQyIiB5PSIxMzYyLjg0OTEiPmF0dGVuZGVkIGJ5PC90ZXh0Pjx0ZXh0IGZpbGw9IiMwMDAwMDAiIGZvbnQtZmFtaWx5PSJzYW5zLXNlcmlmIiBmb250LXNpemU9IjEzIiBsZW5ndGhBZGp1c3Q9InNwYWNpbmciIHRleHRMZW5ndGg9IjciIHg9IjY1NS40NTU3IiB5PSIxNzcyLjYyNCI+MTwvdGV4dD48dGV4dCBmaWxsPSIjMDAwMDAwIiBmb250LWZhbWlseT0ic2Fucy1zZXJpZiIgZm9udC1zaXplPSIxMyIgbGVuZ3RoQWRqdXN0PSJzcGFjaW5nIiB0ZXh0TGVuZ3RoPSI2IiB4PSI3OTQuNDkzOSIgeT0iODI1LjAwNjQiPio8L3RleHQ+PC9nPjwhLS1saW5rIEFzc2Vzc21lbnQgdG8gUmVwb3J0LS0+PGcgaWQ9ImxpbmtfQXNzZXNzbWVudF9SZXBvcnQiPjxwYXRoIGNvZGVMaW5lPSIyNjIiIGQ9Ik04MTAuNTgsMjE3OS45IEM4MTAuNTgsMTkyNS42MyA4MTAuNTgsMTI4OSA4MTAuNTgsMTI4OSBDODEwLjU4LDEyODkgOTA0LjMsMTI4OSA5NzEuNDgsMTI4OSAiIGZpbGw9Im5vbmUiIGlkPSJBc3Nlc3NtZW50LVJlcG9ydCIgc3R5bGU9InN0cm9rZTojMDAwMDAwO3N0cm9rZS13aWR0aDoxLjA7Ii8+PHRleHQgZmlsbD0iIzAwMDAwMCIgZm9udC1mYW1pbHk9InNhbnMtc2VyaWYiIGZvbnQtc2l6ZT0iMTMiIGxlbmd0aEFkanVzdD0ic3BhY2luZyIgdGV4dExlbmd0aD0iNjIiIHg9Ijc0Ny41OCIgeT0iMTY2Ny4yODkxIj5nZW5lcmF0ZXM8L3RleHQ+PHRleHQgZmlsbD0iIzAwMDAwMCIgZm9udC1mYW1pbHk9InNhbnMtc2VyaWYiIGZvbnQtc2l6ZT0iMTMiIGxlbmd0aEFkanVzdD0ic3BhY2luZyIgdGV4dExlbmd0aD0iNyIgeD0iODA2LjQzNTIiIHk9IjIxNzAuNDk5MiI+MTwvdGV4dD48dGV4dCBmaWxsPSIjMDAwMDAwIiBmb250LWZhbWlseT0ic2Fucy1zZXJpZiIgZm9udC1zaXplPSIxMyIgbGVuZ3RoQWRqdXN0PSJzcGFjaW5nIiB0ZXh0TGVuZ3RoPSI2IiB4PSI5NTcuODQ4OSIgeT0iMTI5Ni45MzM1Ij4qPC90ZXh0PjwvZz48IS0tbGluayBBc3Nlc3NtZW50IHRvIFRpbWVUYWJsZS0tPjxnIGlkPSJsaW5rX0Fzc2Vzc21lbnRfVGltZVRhYmxlIj48cGF0aCBjb2RlTGluZT0iMjYzIiBkPSJNNzI3LDIzODYuMjggQzcyNywyNDA1Ljk3IDcyNywyNDI2LjUgNzI3LDI0NDUuOTMgIiBmaWxsPSJub25lIiBpZD0iQXNzZXNzbWVudC1UaW1lVGFibGUiIHN0eWxlPSJzdHJva2U6IzAwMDAwMDtzdHJva2Utd2lkdGg6MS4wOyIvPjx0ZXh0IGZpbGw9IiMwMDAwMDAiIGZvbnQtZmFtaWx5PSJzYW5zLXNlcmlmIiBmb250LXNpemU9IjEzIiBsZW5ndGhBZGp1c3Q9InNwYWNpbmciIHRleHRMZW5ndGg9IjgyIiB4PSI2NDQiIHk9IjI0MTQuMzk5MSI+c2NoZWR1bGVkIGluPC90ZXh0Pjx0ZXh0IGZpbGw9IiMwMDAwMDAiIGZvbnQtZmFtaWx5PSJzYW5zLXNlcmlmIiBmb250LXNpemU9IjEzIiBsZW5ndGhBZGp1c3Q9InNwYWNpbmciIHRleHRMZW5ndGg9IjYiIHg9IjcxNy44MjU0IiB5PSIyNDA1Ljk4MTkiPio8L3RleHQ+PHRleHQgZmlsbD0iIzAwMDAwMCIgZm9udC1mYW1pbHk9InNhbnMtc2VyaWYiIGZvbnQtc2l6ZT0iMTMiIGxlbmd0aEFkanVzdD0ic3BhY2luZyIgdGV4dExlbmd0aD0iNyIgeD0iNzIzLjQ1OSIgeT0iMjQzNi40OTQxIj4xPC90ZXh0PjwvZz48IS0tbGluayBFeGFtIHRvIEV4YW1SZXN1bHQtLT48ZyBpZD0ibGlua19FeGFtX0V4YW1SZXN1bHQiPjxwYXRoIGNvZGVMaW5lPSIyNjQiIGQ9Ik0xODQuNDgsMjI4MyBDMTU1LjcxLDIyODMgMTI5LjUsMjI4MyAxMjkuNSwyMjgzIEMxMjkuNSwyMjgzIDEyOS41LDIzNzIuMzQgMTI5LjUsMjQ0NS45OCAiIGZpbGw9Im5vbmUiIGlkPSJFeGFtLUV4YW1SZXN1bHQiIHN0eWxlPSJzdHJva2U6IzAwMDAwMDtzdHJva2Utd2lkdGg6MS4wOyIvPjx0ZXh0IGZpbGw9IiMwMDAwMDAiIGZvbnQtZmFtaWx5PSJzYW5zLXNlcmlmIiBmb250LXNpemU9IjEzIiBsZW5ndGhBZGp1c3Q9InNwYWNpbmciIHRleHRMZW5ndGg9IjU2IiB4PSI3Mi41IiB5PSIyMzM1LjI4OTEiPnByb2R1Y2VzPC90ZXh0Pjx0ZXh0IGZpbGw9IiMwMDAwMDAiIGZvbnQtZmFtaWx5PSJzYW5zLXNlcmlmIiBmb250LXNpemU9IjEzIiBsZW5ndGhBZGp1c3Q9InNwYWNpbmciIHRleHRMZW5ndGg9IjciIHg9IjE2OS41MTE1IiB5PSIyMjgxLjY3NTUiPjE8L3RleHQ+PHRleHQgZmlsbD0iIzAwMDAwMCIgZm9udC1mYW1pbHk9InNhbnMtc2VyaWYiIGZvbnQtc2l6ZT0iMTMiIGxlbmd0aEFkanVzdD0ic3BhY2luZyIgdGV4dExlbmd0aD0iNiIgeD0iMTI2LjE5NDEiIHk9IjI0MzYuMjMxMyI+KjwvdGV4dD48L2c+PCEtLWxpbmsgRXhhbSB0byBUaW1lVGFibGUtLT48ZyBpZD0ibGlua19FeGFtX1RpbWVUYWJsZSI+PHBhdGggY29kZUxpbmU9IjI2NSIgZD0iTTMzMS43NywyMjgzIEM0MzYuOCwyMjgzIDYxNy4yNSwyMjgzIDYxNy4yNSwyMjgzIEM2MTcuMjUsMjI4MyA2MTcuMjUsMjM3Mi4zNCA2MTcuMjUsMjQ0NS45OCAiIGZpbGw9Im5vbmUiIGlkPSJFeGFtLVRpbWVUYWJsZSIgc3R5bGU9InN0cm9rZTojMDAwMDAwO3N0cm9rZS13aWR0aDoxLjA7Ii8+PHRleHQgZmlsbD0iIzAwMDAwMCIgZm9udC1mYW1pbHk9InNhbnMtc2VyaWYiIGZvbnQtc2l6ZT0iMTMiIGxlbmd0aEFkanVzdD0ic3BhY2luZyIgdGV4dExlbmd0aD0iODIiIHg9IjQ3MyIgeT0iMjI4MS4yODkxIj5zY2hlZHVsZWQgaW48L3RleHQ+PHRleHQgZmlsbD0iIzAwMDAwMCIgZm9udC1mYW1pbHk9InNhbnMtc2VyaWYiIGZvbnQtc2l6ZT0iMTMiIGxlbmd0aEFkanVzdD0ic3BhY2luZyIgdGV4dExlbmd0aD0iNiIgeD0iMzM5LjY2MTEiIHk9IjIyODEuNjc1NSI+KjwvdGV4dD48dGV4dCBmaWxsPSIjMDAwMDAwIiBmb250LWZhbWlseT0ic2Fucy1zZXJpZiIgZm9udC1zaXplPSIxMyIgbGVuZ3RoQWRqdXN0PSJzcGFjaW5nIiB0ZXh0TGVuZ3RoPSI3IiB4PSI2MDQuMDYwMiIgeT0iMjQzNi4yMzEzIj4xPC90ZXh0PjwvZz48IS0tbGluayBFeGFtUmVzdWx0IHRvIFJlcG9ydC0tPjxnIGlkPSJsaW5rX0V4YW1SZXN1bHRfUmVwb3J0Ij48cGF0aCBjb2RlTGluZT0iMjY2IiBkPSJNOTYuMjUsMjQ0NS44OCBDOTYuMjUsMjE1Mi4xOSA5Ni4yNSwxMjgzIDk2LjI1LDEyODMgQzk2LjI1LDEyODMgNzU2LjgyLDEyODMgOTcxLjY0LDEyODMgIiBmaWxsPSJub25lIiBpZD0iRXhhbVJlc3VsdC1SZXBvcnQiIHN0eWxlPSJzdHJva2U6IzAwMDAwMDtzdHJva2Utd2lkdGg6MS4wOyIvPjx0ZXh0IGZpbGw9IiMwMDAwMDAiIGZvbnQtZmFtaWx5PSJzYW5zLXNlcmlmIiBmb250LXNpemU9IjEzIiBsZW5ndGhBZGp1c3Q9InNwYWNpbmciIHRleHRMZW5ndGg9Ijc0IiB4PSIyMS4yNSIgeT0iMTQyNS4wMjkxIj5pbmNsdWRlZCBpbjwvdGV4dD48dGV4dCBmaWxsPSIjMDAwMDAwIiBmb250LWZhbWlseT0ic2Fucy1zZXJpZiIgZm9udC1zaXplPSIxMyIgbGVuZ3RoQWRqdXN0PSJzcGFjaW5nIiB0ZXh0TGVuZ3RoPSI2IiB4PSI4OS45OTIyIiB5PSIyNDM2LjQzOTgiPio8L3RleHQ+PHRleHQgZmlsbD0iIzAwMDAwMCIgZm9udC1mYW1pbHk9InNhbnMtc2VyaWYiIGZvbnQtc2l6ZT0iMTMiIGxlbmd0aEFkanVzdD0ic3BhY2luZyIgdGV4dExlbmd0aD0iNyIgeD0iOTU2LjUzMzUiIHk9IjEzMDUuMjM2OSI+MTwvdGV4dD48L2c+PCEtLWxpbmsgU3R1ZGVudFJlY29yZCB0byBBc3Nlc3NtZW50LS0+PGcgaWQ9ImxpbmtfU3R1ZGVudFJlY29yZF9Bc3Nlc3NtZW50Ij48cGF0aCBjb2RlTGluZT0iMjY5IiBkPSJNNjUyLjI3LDEwNDUgQzcxNi4xMSwxMDQ1IDc5My4wMywxMDQ1IDc5My4wMywxMDQ1IEM3OTMuMDMsMTA0NSA3OTMuMDMsMTg4Mi41MyA3OTMuMDMsMjE3OS44NCAiIGZpbGw9Im5vbmUiIGlkPSJTdHVkZW50UmVjb3JkLUFzc2Vzc21lbnQiIHN0eWxlPSJzdHJva2U6IzAwMDAwMDtzdHJva2Utd2lkdGg6MS4wOyIvPjx0ZXh0IGZpbGw9IiMwMDAwMDAiIGZvbnQtZmFtaWx5PSJzYW5zLXNlcmlmIiBmb250LXNpemU9IjEzIiBsZW5ndGhBZGp1c3Q9InNwYWNpbmciIHRleHRMZW5ndGg9IjQxIiB4PSI3OTQuMDMiIHk9IjE1NDAuMzI5MSI+dHJhY2tzPC90ZXh0Pjx0ZXh0IGZpbGw9IiMwMDAwMDAiIGZvbnQtZmFtaWx5PSJzYW5zLXNlcmlmIiBmb250LXNpemU9IjEzIiBsZW5ndGhBZGp1c3Q9InNwYWNpbmciIHRleHRMZW5ndGg9IjciIHg9IjY2MC4zMzgzIiB5PSIxMDUxLjUyOTciPjE8L3RleHQ+PHRleHQgZmlsbD0iIzAwMDAwMCIgZm9udC1mYW1pbHk9InNhbnMtc2VyaWYiIGZvbnQtc2l6ZT0iMTMiIGxlbmd0aEFkanVzdD0ic3BhY2luZyIgdGV4dExlbmd0aD0iNiIgeD0iNzg4LjUyNjUiIHk9IjIxNzAuNDM0NCI+KjwvdGV4dD48L2c+PCEtLWxpbmsgU3R1ZGVudFJlY29yZCB0byBFeGFtUmVzdWx0LS0+PGcgaWQ9ImxpbmtfU3R1ZGVudFJlY29yZF9FeGFtUmVzdWx0Ij48cGF0aCBjb2RlTGluZT0iMjcwIiBkPSJNNTAyLjc1LDEwNTYuMjYgQzUwMi43NSwxMzk0LjA4IDUwMi43NSwyNTEwIDUwMi43NSwyNTEwIEM1MDIuNzUsMjUxMCAyNzguMjQsMjUxMCAxNjIuOTIsMjUxMCAiIGZpbGw9Im5vbmUiIGlkPSJTdHVkZW50UmVjb3JkLUV4YW1SZXN1bHQiIHN0eWxlPSJzdHJva2U6IzAwMDAwMDtzdHJva2Utd2lkdGg6MS4wOyIvPjx0ZXh0IGZpbGw9IiMwMDAwMDAiIGZvbnQtZmFtaWx5PSJzYW5zLXNlcmlmIiBmb250LXNpemU9IjEzIiBsZW5ndGhBZGp1c3Q9InNwYWNpbmciIHRleHRMZW5ndGg9IjU0IiB4PSI0NDcuNzUiIHk9IjE5NTEuMzI5MSI+aW5jbHVkZXM8L3RleHQ+PHRleHQgZmlsbD0iIzAwMDAwMCIgZm9udC1mYW1pbHk9InNhbnMtc2VyaWYiIGZvbnQtc2l6ZT0iMTMiIGxlbmd0aEFkanVzdD0ic3BhY2luZyIgdGV4dExlbmd0aD0iNyIgeD0iNDkwLjY4MjgiIHk9IjEwNzYuMDk4NyI+MTwvdGV4dD48dGV4dCBmaWxsPSIjMDAwMDAwIiBmb250LWZhbWlseT0ic2Fucy1zZXJpZiIgZm9udC1zaXplPSIxMyIgbGVuZ3RoQWRqdXN0PSJzcGFjaW5nIiB0ZXh0TGVuZ3RoPSI2IiB4PSIxNzAuNTQwMiIgeT0iMjUwNS4xOTIyIj4qPC90ZXh0PjwvZz48IS0tbGluayBTdHVkZW50UmVjb3JkIHRvIFJlcG9ydC0tPjxnIGlkPSJsaW5rX1N0dWRlbnRSZWNvcmRfUmVwb3J0Ij48cGF0aCBjb2RlTGluZT0iMjcxIiBkPSJNNjQzLjI1LDEwNTYuMDggQzY0My4yNSwxMDkxLjg2IDY0My4yNSwxMTI0IDY0My4yNSwxMTI0IEM2NDMuMjUsMTEyNCA4NTkuMTIsMTEyNCA5NzEuNjksMTEyNCAiIGZpbGw9Im5vbmUiIGlkPSJTdHVkZW50UmVjb3JkLVJlcG9ydCIgc3R5bGU9InN0cm9rZTojMDAwMDAwO3N0cm9rZS13aWR0aDoxLjA7Ii8+PHRleHQgZmlsbD0iIzAwMDAwMCIgZm9udC1mYW1pbHk9InNhbnMtc2VyaWYiIGZvbnQtc2l6ZT0iMTMiIGxlbmd0aEFkanVzdD0ic3BhY2luZyIgdGV4dExlbmd0aD0iNjIiIHg9IjcxMC41MSIgeT0iMTEyMi4yODkxIj5nZW5lcmF0ZXM8L3RleHQ+PHRleHQgZmlsbD0iIzAwMDAwMCIgZm9udC1mYW1pbHk9InNhbnMtc2VyaWYiIGZvbnQtc2l6ZT0iMTMiIGxlbmd0aEFkanVzdD0ic3BhY2luZyIgdGV4dExlbmd0aD0iNyIgeD0iNjQxLjcyNDIiIHk9IjEwNzYuMjI2MSI+MTwvdGV4dD48dGV4dCBmaWxsPSIjMDAwMDAwIiBmb250LWZhbWlseT0ic2Fucy1zZXJpZiIgZm9udC1zaXplPSIxMyIgbGVuZ3RoQWRqdXN0PSJzcGFjaW5nIiB0ZXh0TGVuZ3RoPSI2IiB4PSI5NTcuNjQ3MSIgeT0iMTExMy4zNDk0Ij4qPC90ZXh0PjwvZz48IS0tbGluayBTdHVkZW50UmVjb3JkIHRvIFNlc3Npb24tLT48ZyBpZD0ibGlua19TdHVkZW50UmVjb3JkX1Nlc3Npb24iPjxwYXRoIGNvZGVMaW5lPSIyNzIiIGQ9Ik01NjguNzUsMTA1Ni4xNSBDNTY4Ljc1LDEyMTIuNjEgNTY4Ljc1LDE1MjEuNDcgNTY4Ljc1LDE2NzcuOSAiIGZpbGw9Im5vbmUiIGlkPSJTdHVkZW50UmVjb3JkLVNlc3Npb24iIHN0eWxlPSJzdHJva2U6IzAwMDAwMDtzdHJva2Utd2lkdGg6MS4wOyIvPjx0ZXh0IGZpbGw9IiMwMDAwMDAiIGZvbnQtZmFtaWx5PSJzYW5zLXNlcmlmIiBmb250LXNpemU9IjEzIiBsZW5ndGhBZGp1c3Q9InNwYWNpbmciIHRleHRMZW5ndGg9IjQ5IiB4PSI1MTguNzUiIHk9IjEzNjUuMzA5MSI+cmVjb3JkczwvdGV4dD48dGV4dCBmaWxsPSIjMDAwMDAwIiBmb250LWZhbWlseT0ic2Fucy1zZXJpZiIgZm9udC1zaXplPSIxMyIgbGVuZ3RoQWRqdXN0PSJzcGFjaW5nIiB0ZXh0TGVuZ3RoPSI3IiB4PSI1NjEuNTI5NyIgeT0iMTA3NS45ODA2Ij4xPC90ZXh0Pjx0ZXh0IGZpbGw9IiMwMDAwMDAiIGZvbnQtZmFtaWx5PSJzYW5zLXNlcmlmIiBmb250LXNpemU9IjEzIiBsZW5ndGhBZGp1c3Q9InNwYWNpbmciIHRleHRMZW5ndGg9IjYiIHg9IjU2MS4xNjAyIiB5PSIxNjY4LjQ2MTUiPio8L3RleHQ+PC9nPjwhLS1saW5rIExvZyB0byBVc2VyLS0+PGcgaWQ9ImxpbmtfTG9nX1VzZXIiPjxwYXRoIGNvZGVMaW5lPSIyNzUiIGQ9Ik03ODQuMzcsMTQ4NSBDODU2LjEsMTQ4NSA5NDcuNjksMTQ4NSA5NDcuNjksMTQ4NSBDOTQ3LjY5LDE0ODUgOTQ3LjY5LDY0OS43MyA5NDcuNjksMzAzLjA2ICIgZmlsbD0ibm9uZSIgaWQ9IkxvZy1Vc2VyIiBzdHlsZT0ic3Ryb2tlOiMwMDAwMDA7c3Ryb2tlLXdpZHRoOjEuMDsiLz48dGV4dCBmaWxsPSIjMDAwMDAwIiBmb250LWZhbWlseT0ic2Fucy1zZXJpZiIgZm9udC1zaXplPSIxMyIgbGVuZ3RoQWRqdXN0PSJzcGFjaW5nIiB0ZXh0TGVuZ3RoPSIxMDAiIHg9Ijg0Ni42OSIgeT0iOTczLjk3OTEiPnRyYWNrcyBhY3Rpdml0eTwvdGV4dD48dGV4dCBmaWxsPSIjMDAwMDAwIiBmb250LWZhbWlseT0ic2Fucy1zZXJpZiIgZm9udC1zaXplPSIxMyIgbGVuZ3RoQWRqdXN0PSJzcGFjaW5nIiB0ZXh0TGVuZ3RoPSI2IiB4PSI3OTIuMTI5MSIgeT0iMTQ4My43NjIiPio8L3RleHQ+PHRleHQgZmlsbD0iIzAwMDAwMCIgZm9udC1mYW1pbHk9InNhbnMtc2VyaWYiIGZvbnQtc2l6ZT0iMTMiIGxlbmd0aEFkanVzdD0ic3BhY2luZyIgdGV4dExlbmd0aD0iNyIgeD0iOTM3LjQ5MDIiIHk9IjMyMi44NjQ1Ij4xPC90ZXh0PjwvZz48IS0tbGluayBMb2cgdG8gU2Vzc2lvbi0tPjxnIGlkPSJsaW5rX0xvZ19TZXNzaW9uIj48cGF0aCBjb2RlTGluZT0iMjc2IiBkPSJNNjMxLjc1LDE2MTguMjcgQzYzMS43NSwxNjM4LjM1IDYzMS43NSwxNjU4LjcyIDYzMS43NSwxNjc3LjggIiBmaWxsPSJub25lIiBpZD0iTG9nLVNlc3Npb24iIHN0eWxlPSJzdHJva2U6IzAwMDAwMDtzdHJva2Utd2lkdGg6MS4wOyIvPjx0ZXh0IGZpbGw9IiMwMDAwMDAiIGZvbnQtZmFtaWx5PSJzYW5zLXNlcmlmIiBmb250LXNpemU9IjEzIiBsZW5ndGhBZGp1c3Q9InNwYWNpbmciIHRleHRMZW5ndGg9IjEyNCIgeD0iNTA2Ljc1IiB5PSIxNjQ2LjMxOTEiPnJlY29yZHMgYXR0ZW5kYW5jZTwvdGV4dD48dGV4dCBmaWxsPSIjMDAwMDAwIiBmb250LWZhbWlseT0ic2Fucy1zZXJpZiIgZm9udC1zaXplPSIxMyIgbGVuZ3RoQWRqdXN0PSJzcGFjaW5nIiB0ZXh0TGVuZ3RoPSI2IiB4PSI2MjEuODM5OCIgeT0iMTYzOC4yMzQ2Ij4qPC90ZXh0Pjx0ZXh0IGZpbGw9IiMwMDAwMDAiIGZvbnQtZmFtaWx5PSJzYW5zLXNlcmlmIiBmb250LXNpemU9IjEzIiBsZW5ndGhBZGp1c3Q9InNwYWNpbmciIHRleHRMZW5ndGg9IjciIHg9IjYyOC41MzEzIiB5PSIxNjY4LjM1MjkiPjE8L3RleHQ+PC9nPjwhLS1saW5rIExvZyB0byBTdHVkZW50LS0+PGcgaWQ9ImxpbmtfTG9nX1N0dWRlbnQiPjxwYXRoIGNvZGVMaW5lPSIyNzciIGQ9Ik03MzIuMDUsMTM1MS45OSBDNzMyLjA1LDEyMDAuMTcgNzMyLjA1LDk1My43MiA3MzIuMDUsODA1LjA4ICIgZmlsbD0ibm9uZSIgaWQ9IkxvZy1TdHVkZW50IiBzdHlsZT0ic3Ryb2tlOiMwMDAwMDA7c3Ryb2tlLXdpZHRoOjEuMDsiLz48dGV4dCBmaWxsPSIjMDAwMDAwIiBmb250LWZhbWlseT0ic2Fucy1zZXJpZiIgZm9udC1zaXplPSIxMyIgbGVuZ3RoQWRqdXN0PSJzcGFjaW5nIiB0ZXh0TGVuZ3RoPSIxMjMiIHg9IjYwOC4wNSIgeT0iMTA5MS44MTkxIj50cmFja3MgcGVyZm9ybWFuY2U8L3RleHQ+PHRleHQgZmlsbD0iIzAwMDAwMCIgZm9udC1mYW1pbHk9InNhbnMtc2VyaWYiIGZvbnQtc2l6ZT0iMTMiIGxlbmd0aEFkanVzdD0ic3BhY2luZyIgdGV4dExlbmd0aD0iNiIgeD0iNzI3Ljg5NSIgeT0iMTM0Mi4zNzkiPio8L3RleHQ+PHRleHQgZmlsbD0iIzAwMDAwMCIgZm9udC1mYW1pbHk9InNhbnMtc2VyaWYiIGZvbnQtc2l6ZT0iMTMiIGxlbmd0aEFkanVzdD0ic3BhY2luZyIgdGV4dExlbmd0aD0iNyIgeD0iNzI0LjMxNTgiIHk9IjgyNS4wMzgxIj4xPC90ZXh0PjwvZz48IS0tbGluayBUZWFjaGVyIHRvIExvZy0tPjxnIGlkPSJsaW5rX1RlYWNoZXJfTG9nIj48cGF0aCBjb2RlTGluZT0iMjc4IiBkPSJNODIzLjY1LDE5ODQgQzc4Mi45NCwxOTg0IDc0MC43NSwxOTg0IDc0MC43NSwxOTg0IEM3NDAuNzUsMTk4NCA3NDAuNzUsMTc2NS44OSA3NDAuNzUsMTYxOC4wNyAiIGZpbGw9Im5vbmUiIGlkPSJUZWFjaGVyLUxvZyIgc3R5bGU9InN0cm9rZTojMDAwMDAwO3N0cm9rZS13aWR0aDoxLjA7Ii8+PHRleHQgZmlsbD0iIzAwMDAwMCIgZm9udC1mYW1pbHk9InNhbnMtc2VyaWYiIGZvbnQtc2l6ZT0iMTMiIGxlbmd0aEFkanVzdD0ic3BhY2luZyIgdGV4dExlbmd0aD0iMTIzIiB4PSI3NDEuNzUiIHk9IjE4NDAuNzY5MSI+bWFuYWdlcyBhdHRlbmRhbmNlPC90ZXh0Pjx0ZXh0IGZpbGw9IiMwMDAwMDAiIGZvbnQtZmFtaWx5PSJzYW5zLXNlcmlmIiBmb250LXNpemU9IjEzIiBsZW5ndGhBZGp1c3Q9InNwYWNpbmciIHRleHRMZW5ndGg9IjciIHg9IjgwOC41OTU5IiB5PSIxOTc4LjQ5ODIiPjE8L3RleHQ+PHRleHQgZmlsbD0iIzAwMDAwMCIgZm9udC1mYW1pbHk9InNhbnMtc2VyaWYiIGZvbnQtc2l6ZT0iMTMiIGxlbmd0aEFkanVzdD0ic3BhY2luZyIgdGV4dExlbmd0aD0iNiIgeD0iNzM2LjgwMDgiIHk9IjE2MzguMDIzNiI+KjwvdGV4dD48L2c+PCEtLWxpbmsgQWRtaW4gdG8gTG9nLS0+PGcgaWQ9ImxpbmtfQWRtaW5fTG9nIj48cGF0aCBjb2RlTGluZT0iMjc5IiBkPSJNMzY3Ljk1LDEyMjkgQzQ3MS4zNSwxMjI5IDYyNS4yNSwxMjI5IDYyNS4yNSwxMjI5IEM2MjUuMjUsMTIyOSA2MjUuMjUsMTI4OS41NSA2MjUuMjUsMTM1MS43NSAiIGZpbGw9Im5vbmUiIGlkPSJBZG1pbi1Mb2ciIHN0eWxlPSJzdHJva2U6IzAwMDAwMDtzdHJva2Utd2lkdGg6MS4wOyIvPjx0ZXh0IGZpbGw9IiMwMDAwMDAiIGZvbnQtZmFtaWx5PSJzYW5zLXNlcmlmIiBmb250LXNpemU9IjEzIiBsZW5ndGhBZGp1c3Q9InNwYWNpbmciIHRleHRMZW5ndGg9IjUzIiB4PSI1MDMuOTciIHk9IjEyMjcuMjg5MSI+bW9uaXRvcnM8L3RleHQ+PHRleHQgZmlsbD0iIzAwMDAwMCIgZm9udC1mYW1pbHk9InNhbnMtc2VyaWYiIGZvbnQtc2l6ZT0iMTMiIGxlbmd0aEFkanVzdD0ic3BhY2luZyIgdGV4dExlbmd0aD0iNyIgeD0iMzc1LjgzMzgiIHk9IjEyMjkuODY0MSI+MTwvdGV4dD48dGV4dCBmaWxsPSIjMDAwMDAwIiBmb250LWZhbWlseT0ic2Fucy1zZXJpZiIgZm9udC1zaXplPSIxMyIgbGVuZ3RoQWRqdXN0PSJzcGFjaW5nIiB0ZXh0TGVuZ3RoPSI2IiB4PSI2MTQuNDk2OSIgeT0iMTM0Mi41NTg1Ij4qPC90ZXh0PjwvZz48IS0tbGluayBSZXBvcnQgdG8gTG9nLS0+PGcgaWQ9ImxpbmtfUmVwb3J0X0xvZyI+PHBhdGggY29kZUxpbmU9IjI4MCIgZD0iTTk3MS41MSwxMjg2IEM4ODguNjcsMTI4NiA3NTguMTUsMTI4NiA3NTguMTUsMTI4NiBDNzU4LjE1LDEyODYgNzU4LjE1LDEzMTUuNjEgNzU4LjE1LDEzNTEuOTkgIiBmaWxsPSJub25lIiBpZD0iUmVwb3J0LUxvZyIgc3R5bGU9InN0cm9rZTojMDAwMDAwO3N0cm9rZS13aWR0aDoxLjA7Ii8+PHRleHQgZmlsbD0iIzAwMDAwMCIgZm9udC1mYW1pbHk9InNhbnMtc2VyaWYiIGZvbnQtc2l6ZT0iMTMiIGxlbmd0aEFkanVzdD0ic3BhY2luZyIgdGV4dExlbmd0aD0iNTQiIHg9Ijc3Ni44NCIgeT0iMTI4NC4yODkxIj5pbmNsdWRlczwvdGV4dD48dGV4dCBmaWxsPSIjMDAwMDAwIiBmb250LWZhbWlseT0ic2Fucy1zZXJpZiIgZm9udC1zaXplPSIxMyIgbGVuZ3RoQWRqdXN0PSJzcGFjaW5nIiB0ZXh0TGVuZ3RoPSI3IiB4PSI5NjEuODI2NCIgeT0iMTMxMS45MjI2Ij4xPC90ZXh0Pjx0ZXh0IGZpbGw9IiMwMDAwMDAiIGZvbnQtZmFtaWx5PSJzYW5zLXNlcmlmIiBmb250LXNpemU9IjEzIiBsZW5ndGhBZGp1c3Q9InNwYWNpbmciIHRleHRMZW5ndGg9IjYiIHg9Ijc1NS42NjciIHk9IjEzNDIuMzc5Ij4qPC90ZXh0PjwvZz48IS0tbGluayBTdHVkZW50UmVjb3JkIHRvIExvZy0tPjxnIGlkPSJsaW5rX1N0dWRlbnRSZWNvcmRfTG9nIj48cGF0aCBjb2RlTGluZT0iMjgxIiBkPSJNNjM0LjI1LDEwNTYuMDkgQzYzNC4yNSwxMTM4LjgyIDYzNC4yNSwxMjU5LjM0IDYzNC4yNSwxMzUxLjU4ICIgZmlsbD0ibm9uZSIgaWQ9IlN0dWRlbnRSZWNvcmQtTG9nIiBzdHlsZT0ic3Ryb2tlOiMwMDAwMDA7c3Ryb2tlLXdpZHRoOjEuMDsiLz48dGV4dCBmaWxsPSIjMDAwMDAwIiBmb250LWZhbWlseT0ic2Fucy1zZXJpZiIgZm9udC1zaXplPSIxMyIgbGVuZ3RoQWRqdXN0PSJzcGFjaW5nIiB0ZXh0TGVuZ3RoPSIxMDgiIHg9IjUyNS4yNSIgeT0iMTIwMi4xMTkxIj5jb250YWlucyBoaXN0b3J5PC90ZXh0Pjx0ZXh0IGZpbGw9IiMwMDAwMDAiIGZvbnQtZmFtaWx5PSJzYW5zLXNlcmlmIiBmb250LXNpemU9IjEzIiBsZW5ndGhBZGp1c3Q9InNwYWNpbmciIHRleHRMZW5ndGg9IjciIHg9IjYzMi4wMzUyIiB5PSIxMDc2LjIzNjkiPjE8L3RleHQ+PHRleHQgZmlsbD0iIzAwMDAwMCIgZm9udC1mYW1pbHk9InNhbnMtc2VyaWYiIGZvbnQtc2l6ZT0iMTMiIGxlbmd0aEFkanVzdD0ic3BhY2luZyIgdGV4dExlbmd0aD0iNiIgeD0iNjI0LjA0NTMiIHk9IjEzNDIuMzc4MiI+KjwvdGV4dD48L2c+PCEtLVNSQz1bWkxYQlNuaXQzQnhoTC1wYXVadWNjVVFnd0tMbnVvR3BKa2c5dEtFRjUwYjlaN1VONnY4aEh0dHl6dTlsQjdWTmdHLXMyODhXRlgzdTBGY2drTUtORFRoNldCTW9GdmdEVVBKem0zSmhjYmxQV3hxQ3EyWGpKdWZpeTlPUGl4RE1vX3JldUdETl9SdHkydmZWRFlTZmVFNUl5bk9zY3dsY3RidlFNQkJpM0pIX1JuaHl1UWZMa2pjdFozX3d6SGx5U0RIZ3hDTXJ0dGF3SUdqWEhzYTEtaGhJdHNjamRnWm10eXM2eE90TFpEanVxSHk2VEJwalBJRDVfNjN1SVFkc0dyZ0VnRElwM2s5b204REZVNjVTN2dHc3piRlBIaGpxMkhzSlJKZnZLZHNJQ280cTY0Q0V0UWdaeDlDaFBpVWpGNEUtZXAtMjdoSmloUFZ1TnB5dGhKbG5tdXpiWFMtTGJzVkd5ZDJ2QUlWcHBaVzhQazVFZ3VEaThLbHZZUTdnTkdJN09lbk0yREF6N0dOcURpVjlYN01FcHI0cGFKbXJXN3doMTBEd2hUZ3NHLU5WYzJ0bnFvWnVIMEZnMURVZ2pfV21vVVIwQTU4cHhaamZUeVBXbzlvdldiQjJLbjZSWVZwVTdKODZ0VmQ4ekVEcXgtcXRyaXFiZHk2Q0JSNzJYZzZ6dDJaejZSWklFYTBoME1DajdybDR6VXZrSHlGcjA4b1ZJNWhQaUN4WDRlMjBoTkN0bk1wU1ZxN1JBSFUtQURkWmd2NjhWSHJQQW0tSWlucFF3NEI3VWRRNC0zeFBpSUZxZUY3cVBuWW1GaEN1QTJfNEM2bXVfQ000VXo4SWxxYXNYMzJ5MW9QQUhXSlBFYUd5QTh5elkxV1JDbVNIVG9nZDdjRzczc25GcVhJVkhBaXB0MDh4OHkybDh2V3Z5RVhZbmZ6emx5Q3d1NzlXUlZPU3BNNnV4SUg1ZXhNekxhbm1CQ25UdG9GZlM5VzRKT0RCY2QyNWdScnhVdnVhT3RlY1RaWEt2LXowN3ZKNlZHeEtwdnRlUDV6eVRBaVNNeU92RmswamRBNlRIejduTVJhTndWU1dad0U2LXVrbks1dnRac0d1M2VZTnBLRmRETWpPbUpXdzZfRjFKOXBENkpMZEtZamoycGFmM0RUbzhGR1dIWTFQUmZMYmhRX0tRTHRLQVFHZVJBdTFCSW1hVEkydlhHcTFCSW5rWDBpVUwyb2QyS1BONzdEcWYyYkNWSEs1YkhXcjh2MGhhMUNLYW1lQ19hejRtVkU5UUM3ZGNXQ0llcXNtMUY0UzRVMVVwaElRdnBsb0RmSnBEVDBUS1BMSGVLYnR2N2lhNU0wN3pvUWFjZVhXeGxEdy15NC0zY0JDMk5YNjVYS3RNZExxbFBIRXpfNVN2VExDNzF2YTlsUHNmX2c0Rk5xMUJTbVNhbUlnVXVRbm9BU2sxaGNuMmg4SXhCODAwWDlySnAxS3FXWVhhWU80eFd4Z1ZOWWlYSkI3TU4yVS1rYzluUGpCYjIwWE1QWkVDMmp2MERfU2lYQVE0cXVBYk9uZlZmOWRjN0R6QjBkVmtpTmd4Qzk3eE9RRlRvSTc2Q1ZGZFVIXzBqRkI3UGZQSDI0U1FVU1o5dWM0eDRTRzJZdmJDbXlKTExLR2tzb2NlMTVZTHNwRFlrTDFpcHdHQTRNQVctRXBKLUJjcm1tTzQtYThiZEdKSWF4dXQ5WGZ0UDBQcy1CbVFhZUVzWjRqdkIwWjAtbWF5VDJUQWtjZTEyXzd2TmpmaERBTnh4NTEzWE5zSmVqNzkyVkRoR05NX3p1QWoxUmZ4UWh2cTZGSElFajJZZ3BLVWs4cjlwY09aSF9xVl90ZHZTa0s1cUdJSG0tZ0tzT1M4aXRKMHY3dkprc2tsYk9RU2tmS2J3UzEtaUxGQm5leXVfd0dmaGNEcS1zWWRjeXlNdG9ySG8zeGhvVnhhU290VTJpN2g4TXY4bHdQYmlFc0tLX3pfNEJLQXFJeFJHdXVsQWtkSEpLdzFSZ0JfUm8wdFNzNW1pU0o5eldnMmNhazlrWmVQT2NpWVVCaHZOMjVENWxLWS01MmRYNlpnelZ3cGtTeU5wMk5zN2VSMlBkVS1VZkxtUDQyTEZHbTMxX3pxRUh6aGpBMVU0MGtJd1BURldvV3B6QjBrWXU5TjFaRUxiS1pQc19abkJjZ0xwMGFXdVoxZnhUcU52ZFRqejRBSHZjY2J3eDNDTFdSVzFNcndJa2E2blRMSXJtMC16QmVkdHhQUGE2V1VlZHlpY1FHMTJ5RXgwV3NwRG1oUWRjSURkRXphWUp1TEgtX215aFVYb3ZyX3hlQWlqTDU0d3YzVVdqOUg0aXAxb0JEbVl2amktOUk4NEFkR2lOem5KemR1Z1ZPWTJsVkk5S2psTVdZd1FkWUNkTWFRWE9EcWdFbG9aTkltbFhaaFFCSGVGS19wU05aSDNzeFlJX1VaWUFlOGtSOFU4a0M3RlZNWUNSemYtWm42VUs5WmRaakMtZUJXTHBMQkhjWF9QdkZBTW5ybnBjbGtsUEZ1azF4S19CVHpfVXBqOVRRUXNRVjNaTXJSYzZ0TzdHZXRyZ05NRENUcHBMRHhTdkE5c2djUWVxMWNZYnlGeEgxQm5MRlNtaFpuTnkwXS0tPjwvZz48L3N2Zz4=;" vertex="1" parent="1">
            <mxGeometry x="-330" y="-1680" width="1314" height="2643" as="geometry" />
          </mxCell>
        </UserObject>
      </root>
    </mxGraphModel>
  </diagram>
</mxfile>
